<svg width="667" height="496" xmlns="http://www.w3.org/2000/svg" xmlns:xlink="http://www.w3.org/1999/xlink" xml:space="preserve" overflow="hidden"><defs><clipPath id="clip0"><rect x="306" y="84" width="667" height="496"/></clipPath><clipPath id="clip1"><rect x="306" y="84" width="667" height="496"/></clipPath><clipPath id="clip2"><rect x="307" y="85" width="666" height="495"/></clipPath><clipPath id="clip3"><rect x="307" y="85" width="666" height="496"/></clipPath></defs><g clip-path="url(#clip0)" transform="translate(-306 -84)"><g clip-path="url(#clip1)"><g clip-path="url(#clip2)"><g clip-path="url(#clip3)"><g><path d="M0 0 666 0 666 666 0 666Z" fill="#FFFFFF" fill-rule="nonzero" fill-opacity="1" transform="matrix(1 0 0 -1.00257 307 693.951)"/><g><path d="M0 0 0 18.4415C0 21.9127 0.125208 26.5947 0.37962 32.4901 0.631368 38.3829 0.829836 41.4758 0.976356 41.7649L-0.217116 41.7649C-2.67732 36.1958-5.4612 30.9876-8.57009 26.1432L-26.1445 0ZM59.7722-32.0026 42.307-32.0026 42.307-62.7026 0-62.7026 0-32.0026-63.2447-32.0026-63.2447-0.542124 2.71195 95.8973 42.307 95.8973 42.307 0 59.7722 0Z" fill="#F5DF60" fill-rule="nonzero" fill-opacity="1" transform="matrix(1 0 0 -1.00257 508.072 378.273)"/></g><g><path d="M0 0C0-17.9367 1.12021-30.267 3.3633-36.9923 5.60372-43.7176 9.36529-47.0809 14.6453-47.0809 19.996-47.0809 23.7735-43.6097 25.9807-36.6673 28.1864-29.7249 29.2893-17.5025 29.2893 0 29.2893 17.5731 28.1665 29.8861 25.9274 36.9377 23.6843 43.9893 19.9227 47.5138 14.6453 47.5138 9.36529 47.5138 5.60372 44.1145 3.3633 37.3173 1.12021 30.5188 0 18.0792 0 0M71.9227 0C71.9227-28.0612 67.2207-48.618 57.8195-61.6729 48.4182-74.7265 34.0246-81.252 14.6453-81.252-4.30369-81.252-18.5867-74.4375-28.2051-60.8045-37.8248-47.1741-42.6333-26.9037-42.6333 0-42.6333 28.2051-37.9327 48.8871-28.5301 62.0512-19.1302 75.214-4.73659 81.7941 14.6453 81.7941 33.5211 81.7941 47.7842 74.941 57.4398 61.2374 67.0955 47.5311 71.9227 27.1195 71.9227 0" fill="#F5DF60" fill-rule="nonzero" fill-opacity="1" transform="matrix(1 0 0 -1.00257 621.651 361.851)"/></g><path d="M0 0 0 18.4415C0 21.9127 0.125208 26.5947 0.37962 32.4901 0.631368 38.3829 0.829836 41.4758 0.976356 41.7649L-0.217116 41.7649C-2.67599 36.1958-5.4612 30.9876-8.57009 26.1432L-26.1432 0ZM59.7722-32.0026 42.307-32.0026 42.307-62.7026 0-62.7026 0-32.0026-63.2447-32.0026-63.2447-0.542124 2.71195 95.8973 42.307 95.8973 42.307 0 59.7722 0Z" fill="#F5DF60" fill-rule="nonzero" fill-opacity="1" transform="matrix(1 0 0 -1.00257 768.425 378.273)"/><g><path d="M0 0 64.1171 0" stroke="#000000" stroke-width="2.88112" stroke-linecap="round" stroke-linejoin="round" stroke-miterlimit="10" stroke-opacity="1" fill="none" fill-rule="nonzero" transform="matrix(1 0 0 -1.00257 381.26 317.412)"/></g><g><path d="M0 0 13.6863 0" stroke="#000000" stroke-width="2.88112" stroke-linecap="round" stroke-linejoin="round" stroke-miterlimit="10" stroke-opacity="1" fill="none" fill-rule="nonzero" transform="matrix(1 0 0 -1.00257 460.768 317.412)"/></g><path d="M0 0 114.785 0" stroke="#000000" stroke-width="2.88112" stroke-linecap="round" stroke-linejoin="round" stroke-miterlimit="10" stroke-opacity="1" fill="none" fill-rule="nonzero" transform="matrix(1 0 0 -1.00257 369.648 299.319)"/><path d="M0 0-9.44788 0" stroke="#000000" stroke-width="2.88112" stroke-linecap="round" stroke-linejoin="round" stroke-miterlimit="10" stroke-opacity="1" fill="none" fill-rule="nonzero" transform="matrix(1 0 0 -1.00257 360.2 299.319)"/><path d="M0 0 38.1085 0" stroke="#000000" stroke-width="2.88112" stroke-linecap="round" stroke-linejoin="round" stroke-miterlimit="10" stroke-opacity="1" fill="none" fill-rule="nonzero" transform="matrix(1 0 0 -1.00257 369.648 282.13)"/><path d="M0 0 80.0345 0" stroke="#000000" stroke-width="2.88112" stroke-linecap="round" stroke-linejoin="round" stroke-miterlimit="10" stroke-opacity="1" fill="none" fill-rule="nonzero" transform="matrix(1 0 0 -1.00257 417.959 282.13)"/><g><path d="M0 0 68.614 0" stroke="#000000" stroke-width="2.88112" stroke-linecap="round" stroke-linejoin="round" stroke-miterlimit="10" stroke-opacity="1" fill="none" fill-rule="nonzero" transform="matrix(1 0 0 -1.00257 834.484 460.953)"/></g><path d="M0 0 9.92473 0" stroke="#000000" stroke-width="2.88112" stroke-linecap="round" stroke-linejoin="round" stroke-miterlimit="10" stroke-opacity="1" fill="none" fill-rule="nonzero" transform="matrix(1 0 0 -1.00257 914.258 460.953)"/><path d="M0 0 89.9207 0" stroke="#000000" stroke-width="2.88112" stroke-linecap="round" stroke-linejoin="round" stroke-miterlimit="10" stroke-opacity="1" fill="none" fill-rule="nonzero" transform="matrix(1 0 0 -1.00257 848.186 442.859)"/><path d="M0 0-6.85048 0" stroke="#000000" stroke-width="2.88112" stroke-linecap="round" stroke-linejoin="round" stroke-miterlimit="10" stroke-opacity="1" fill="none" fill-rule="nonzero" transform="matrix(1 0 0 -1.00257 841.335 442.859)"/><g><path d="M0 0 41.3346 0" stroke="#000000" stroke-width="2.88112" stroke-linecap="round" stroke-linejoin="round" stroke-miterlimit="10" stroke-opacity="1" fill="none" fill-rule="nonzero" transform="matrix(1 0 0 -1.00257 834.484 425.671)"/></g><g><path d="M0 0 31.0409 0" stroke="#000000" stroke-width="2.88112" stroke-linecap="round" stroke-linejoin="round" stroke-miterlimit="10" stroke-opacity="1" fill="none" fill-rule="nonzero" transform="matrix(1 0 0 -1.00257 883.217 425.671)"/></g><g><path d="M0 0 0 18.4415C0 21.9127 0.125208 26.5947 0.37962 32.4901 0.631368 38.3829 0.829836 41.4758 0.976356 41.7649L-0.217116 41.7649C-2.67732 36.1958-5.4612 30.9876-8.57009 26.1432L-26.1445 0ZM59.7722-32.0026 42.307-32.0026 42.307-62.7026 0-62.7026 0-32.0026-63.2447-32.0026-63.2447-0.542124 2.71195 95.8973 42.307 95.8973 42.307 0 59.7722 0Z" stroke="#000000" stroke-width="4.35298" stroke-linecap="butt" stroke-linejoin="miter" stroke-miterlimit="10" stroke-opacity="1" fill="none" fill-rule="nonzero" transform="matrix(1 0 0 -1.00257 516.283 377.666)"/></g><g><path d="M0 0C0-17.9367 1.12021-30.267 3.3633-36.9923 5.60372-43.7176 9.36529-47.0809 14.6453-47.0809 19.996-47.0809 23.7735-43.6097 25.9807-36.6673 28.1864-29.7249 29.2893-17.5025 29.2893 0 29.2893 17.5731 28.1665 29.8874 25.9274 36.9377 23.6843 43.9893 19.9227 47.5138 14.6453 47.5138 9.36529 47.5138 5.60372 44.1145 3.3633 37.3173 1.12021 30.5188 0 18.0792 0 0ZM71.9227 0C71.9227-28.0612 67.2207-48.618 57.8195-61.6729 48.4182-74.7265 34.0246-81.252 14.6453-81.252-4.30369-81.252-18.5867-74.4375-28.2051-60.8045-37.8248-47.1741-42.6333-26.9037-42.6333 0-42.6333 28.2051-37.9327 48.8871-28.5301 62.0512-19.1302 75.214-4.73659 81.7941 14.6453 81.7941 33.5211 81.7941 47.7855 74.941 57.4398 61.2374 67.0955 47.5311 71.9227 27.1195 71.9227 0Z" stroke="#000000" stroke-width="4.35298" stroke-linecap="butt" stroke-linejoin="miter" stroke-miterlimit="10" stroke-opacity="1" fill="none" fill-rule="nonzero" transform="matrix(1 0 0 -1.00257 629.862 361.243)"/></g><g><path d="M0 0 0 18.4415C0 21.9127 0.125208 26.5947 0.37962 32.4901 0.631368 38.3829 0.829836 41.4758 0.976356 41.7649L-0.217116 41.7649C-2.67599 36.1958-5.4612 30.9876-8.57009 26.1432L-26.1432 0ZM59.7722-32.0026 42.307-32.0026 42.307-62.7026 0-62.7026 0-32.0026-63.2447-32.0026-63.2447-0.542124 2.71195 95.8973 42.307 95.8973 42.307 0 59.7722 0Z" stroke="#000000" stroke-width="4.35298" stroke-linecap="butt" stroke-linejoin="miter" stroke-miterlimit="10" stroke-opacity="1" fill="none" fill-rule="nonzero" transform="matrix(1 0 0 -1.00257 776.636 377.666)"/></g><path d="M24.8196-0.00131327 3.82498-0.00131327 3.82498-35.3565 24.8196-35.3565 24.8196-27.6923 13.3779-27.6923 13.3779-22.1354 23.9611-22.1354 23.9611-14.4556 13.3779-14.4556 13.3779-7.79039 24.8196-7.79039ZM40.5694-12.8634 40.5694-0.00131327 31.0165-0.00131327 31.0165-35.3565 42.5987-35.3565C52.2023-35.3565 57.0061-31.8757 57.0061-24.9139 57.0061-20.8125 55.0081-17.6438 51.0121-15.4078L61.3143-0.00131327 50.4814-0.00131327 42.9889-12.8634ZM40.5694-20.0437 42.3489-20.0437C45.6893-20.0437 47.3595-21.5188 47.3595-24.4768 47.3595-26.9119 45.7244-28.1294 42.4582-28.1294L40.5694-28.1294ZM74.1023-12.8634 74.1023-0.00131327 64.5493-0.00131327 64.5493-35.3565 76.1315-35.3565C85.7352-35.3565 90.5389-31.8757 90.5389-24.9139 90.5389-20.8125 88.541-17.6438 84.545-15.4078L94.8471-0.00131327 84.0142-0.00131327 76.5217-12.8634ZM74.1023-20.0437 75.8818-20.0437C79.2222-20.0437 80.8924-21.5188 80.8924-24.4768 80.8924-26.9119 79.2573-28.1294 75.991-28.1294L74.1023-28.1294ZM131.158-17.7336C131.158-11.7786 129.695-7.25187 126.772-4.15341 123.857-1.06275 119.592 0.482577 113.973 0.482577 108.423 0.482577 104.17-1.07056 101.204-4.18463 98.2461-7.29479 96.771-11.8254 96.771-17.7804 96.771-23.6573 98.2422-28.1489 101.188-31.2513 104.131-34.3614 108.408-35.9185 114.019-35.9185 119.647-35.9185 123.908-34.3771 126.803-31.2981 129.707-28.2153 131.158-23.6963 131.158-17.7336ZM106.839-17.7336C106.839-10.8967 109.216-7.4782 113.973-7.4782 116.384-7.4782 118.175-8.3055 119.342-9.96009 120.517-11.6225 121.106-14.2136 121.106-17.7336 121.106-21.2613 120.513-23.868 119.327-25.5539 118.14-27.2397 116.369-28.0826 114.019-28.0826 109.231-28.0826 106.839-24.6329 106.839-17.7336ZM147.111-12.8634 147.111-0.00131327 137.558-0.00131327 137.558-35.3565 149.14-35.3565C158.744-35.3565 163.548-31.8757 163.548-24.9139 163.548-20.8125 161.55-17.6438 157.554-15.4078L167.856-0.00131327 157.023-0.00131327 149.531-12.8634ZM147.111-20.0437 148.891-20.0437C152.231-20.0437 153.901-21.5188 153.901-24.4768 153.901-26.9119 152.266-28.1294 149-28.1294L147.111-28.1294Z" fill="#000000" fill-rule="nonzero" fill-opacity="1" transform="matrix(1 0 0 1.00257 560.589 510.198)"/><path d="M0 0 0 14.7039" stroke="#000000" stroke-width="2.88112" stroke-linecap="round" stroke-linejoin="round" stroke-miterlimit="10" stroke-opacity="1" fill="none" fill-rule="nonzero" transform="matrix(1 0 0 -1.00257 864.428 313.49)"/><path d="M0 0-10.3976 10.3976" stroke="#000000" stroke-width="2.88112" stroke-linecap="round" stroke-linejoin="round" stroke-miterlimit="10" stroke-opacity="1" fill="none" fill-rule="nonzero" transform="matrix(1 0 0 -1.00257 854.164 317.753)"/><g><path d="M0 0-14.7039 0" stroke="#000000" stroke-width="2.88112" stroke-linecap="round" stroke-linejoin="round" stroke-miterlimit="10" stroke-opacity="1" fill="none" fill-rule="nonzero" transform="matrix(1 0 0 -1.00257 849.912 328.043)"/></g><path d="M0 0-10.3976-10.3976" stroke="#000000" stroke-width="2.88112" stroke-linecap="round" stroke-linejoin="round" stroke-miterlimit="10" stroke-opacity="1" fill="none" fill-rule="nonzero" transform="matrix(1 0 0 -1.00257 854.164 338.334)"/><path d="M0 0 0-14.7039" stroke="#000000" stroke-width="2.88112" stroke-linecap="round" stroke-linejoin="round" stroke-miterlimit="10" stroke-opacity="1" fill="none" fill-rule="nonzero" transform="matrix(1 0 0 -1.00257 864.428 342.596)"/><g><path d="M0 0 10.3976-10.3976" stroke="#000000" stroke-width="2.88112" stroke-linecap="round" stroke-linejoin="round" stroke-miterlimit="10" stroke-opacity="1" fill="none" fill-rule="nonzero" transform="matrix(1 0 0 -1.00257 874.692 338.334)"/></g><path d="M0 0 14.7039 0" stroke="#000000" stroke-width="2.88112" stroke-linecap="round" stroke-linejoin="round" stroke-miterlimit="10" stroke-opacity="1" fill="none" fill-rule="nonzero" transform="matrix(1 0 0 -1.00257 878.943 328.043)"/><g><path d="M0 0 10.3976 10.3976" stroke="#000000" stroke-width="2.88112" stroke-linecap="round" stroke-linejoin="round" stroke-miterlimit="10" stroke-opacity="1" fill="none" fill-rule="nonzero" transform="matrix(1 0 0 -1.00257 874.692 317.753)"/></g><g><path d="M0 0 0 10.628" stroke="#000000" stroke-width="2.88112" stroke-linecap="round" stroke-linejoin="round" stroke-miterlimit="10" stroke-opacity="1" fill="none" fill-rule="nonzero" transform="matrix(1 0 0 -1.00257 403.252 386.894)"/></g><g><path d="M0 0-7.51514 7.51514" stroke="#000000" stroke-width="2.88112" stroke-linecap="round" stroke-linejoin="round" stroke-miterlimit="10" stroke-opacity="1" fill="none" fill-rule="nonzero" transform="matrix(1 0 0 -1.00257 395.833 389.975)"/></g><path d="M0 0-10.628 0" stroke="#000000" stroke-width="2.88112" stroke-linecap="round" stroke-linejoin="round" stroke-miterlimit="10" stroke-opacity="1" fill="none" fill-rule="nonzero" transform="matrix(1 0 0 -1.00257 392.76 397.413)"/><g><path d="M0 0-7.51514-7.51514" stroke="#000000" stroke-width="2.88112" stroke-linecap="round" stroke-linejoin="round" stroke-miterlimit="10" stroke-opacity="1" fill="none" fill-rule="nonzero" transform="matrix(1 0 0 -1.00257 395.833 404.851)"/></g><g><path d="M0 0 0-10.628" stroke="#000000" stroke-width="2.88112" stroke-linecap="round" stroke-linejoin="round" stroke-miterlimit="10" stroke-opacity="1" fill="none" fill-rule="nonzero" transform="matrix(1 0 0 -1.00257 403.252 407.932)"/></g><path d="M0 0 7.51514-7.51514" stroke="#000000" stroke-width="2.88112" stroke-linecap="round" stroke-linejoin="round" stroke-miterlimit="10" stroke-opacity="1" fill="none" fill-rule="nonzero" transform="matrix(1 0 0 -1.00257 410.671 404.851)"/><path d="M0 0 10.628 0" stroke="#000000" stroke-width="2.88112" stroke-linecap="round" stroke-linejoin="round" stroke-miterlimit="10" stroke-opacity="1" fill="none" fill-rule="nonzero" transform="matrix(1 0 0 -1.00257 413.744 397.413)"/><path d="M0 0 7.51514 7.51514" stroke="#000000" stroke-width="2.88112" stroke-linecap="round" stroke-linejoin="round" stroke-miterlimit="10" stroke-opacity="1" fill="none" fill-rule="nonzero" transform="matrix(1 0 0 -1.00257 410.671 389.975)"/><path d="M0 0 0 10.628" stroke="#000000" stroke-width="2.88112" stroke-linecap="round" stroke-linejoin="round" stroke-miterlimit="10" stroke-opacity="1" fill="none" fill-rule="nonzero" transform="matrix(1 0 0 -1.00257 690.859 166.799)"/><path d="M0 0-7.51514 7.51514" stroke="#000000" stroke-width="2.88112" stroke-linecap="round" stroke-linejoin="round" stroke-miterlimit="10" stroke-opacity="1" fill="none" fill-rule="nonzero" transform="matrix(1 0 0 -1.00257 683.44 169.88)"/><g><path d="M0 0-10.628 0" stroke="#000000" stroke-width="2.88112" stroke-linecap="round" stroke-linejoin="round" stroke-miterlimit="10" stroke-opacity="1" fill="none" fill-rule="nonzero" transform="matrix(1 0 0 -1.00257 680.367 177.318)"/></g><path d="M0 0-7.51514-7.51514" stroke="#000000" stroke-width="2.88112" stroke-linecap="round" stroke-linejoin="round" stroke-miterlimit="10" stroke-opacity="1" fill="none" fill-rule="nonzero" transform="matrix(1 0 0 -1.00257 683.44 184.757)"/><path d="M0 0 0-10.628" stroke="#000000" stroke-width="2.88112" stroke-linecap="round" stroke-linejoin="round" stroke-miterlimit="10" stroke-opacity="1" fill="none" fill-rule="nonzero" transform="matrix(1 0 0 -1.00257 690.859 187.838)"/><path d="M0 0 7.51514-7.51514" stroke="#000000" stroke-width="2.88112" stroke-linecap="round" stroke-linejoin="round" stroke-miterlimit="10" stroke-opacity="1" fill="none" fill-rule="nonzero" transform="matrix(1 0 0 -1.00257 698.279 184.757)"/><path d="M0 0 10.628 0" stroke="#000000" stroke-width="2.88112" stroke-linecap="round" stroke-linejoin="round" stroke-miterlimit="10" stroke-opacity="1" fill="none" fill-rule="nonzero" transform="matrix(1 0 0 -1.00257 701.352 177.318)"/><path d="M0 0 7.51514 7.51514" stroke="#000000" stroke-width="2.88112" stroke-linecap="round" stroke-linejoin="round" stroke-miterlimit="10" stroke-opacity="1" fill="none" fill-rule="nonzero" transform="matrix(1 0 0 -1.00257 698.279 169.88)"/><g><path d="M513.664 173.169 149.015 173.169 149.015 230.576 513.664 230.576Z" stroke="#000000" stroke-width="3.22211" stroke-linecap="round" stroke-linejoin="round" stroke-miterlimit="10" stroke-opacity="1" fill="none" fill-rule="nonzero" transform="matrix(1 0 0 -1.00257 307 693.951)"/></g><path d="M3.54328-0.00129454 5.08861-0.00129454 5.08861-10.444 8.66316-10.444 8.66316-11.7395-0.0156552-11.7395-0.0156552-10.444 3.54328-10.444ZM9.79484-0.00129454 11.3402-0.00129454 11.3402-5.08995C11.3402-5.38653 11.3558-5.60506 11.4338-5.80798 11.7148-6.65089 12.4953-7.35331 13.4943-7.35331 14.9303-7.35331 15.4454-6.19822 15.4454-4.8402L15.4454-0.00129454 16.9751-0.00129454 16.9751-5.0119C16.9751-7.91525 15.1645-8.61767 14.025-8.61767 13.463-8.61767 12.9167-8.44597 12.464-8.18061 11.9958-7.91525 11.6055-7.54062 11.3714-7.10356L11.3402-7.10356 11.3402-12.3639 9.79484-12.3639ZM26.2315-3.93486C26.2471-4.09095 26.2783-4.3407 26.2783-4.65289 26.2783-6.19822 25.5603-8.61767 22.7974-8.61767 20.3468-8.61767 18.8483-6.61967 18.8483-4.07534 18.8483-1.53101 20.4092 0.170409 23.0004 0.170409 24.3428 0.170409 25.2637-0.11056 25.7944-0.344701L25.5447-1.45297C24.9671-1.20322 24.2959-1.0159 23.2033-1.0159 21.6736-1.0159 20.3468-1.85881 20.3156-3.93486ZM20.3312-5.02751C20.456-6.08895 21.1272-7.52501 22.6882-7.52501 24.4052-7.52501 24.8267-6.0109 24.8111-5.02751ZM31.8704-0.00129454 33.3845-0.00129454 33.3845-4.49679C33.3845-4.74654 33.4313-4.99629 33.4625-5.19922 33.6655-6.35431 34.4303-7.166 35.5074-7.166 35.7259-7.166 35.882-7.15039 36.0381-7.11917L36.0381-8.57084C35.8976-8.60206 35.7727-8.61767 35.601-8.61767 34.5708-8.61767 33.6499-7.89964 33.2752-6.77576L33.1972-6.77576 33.1504-8.43036 31.808-8.43036C31.8548-7.63428 31.8704-6.79137 31.8704-5.79237ZM44.1628-3.93486C44.1784-4.09095 44.2096-4.3407 44.2096-4.65289 44.2096-6.19822 43.4916-8.61767 40.7287-8.61767 38.278-8.61767 36.7795-6.61967 36.7795-4.07534 36.7795-1.53101 38.3405 0.170409 40.9316 0.170409 42.274 0.170409 43.195-0.11056 43.7257-0.344701L43.476-1.45297C42.8984-1.20322 42.2272-1.0159 41.1346-1.0159 39.6048-1.0159 38.278-1.85881 38.2468-3.93486ZM38.2624-5.02751C38.3873-6.08895 39.0585-7.52501 40.6194-7.52501 42.3365-7.52501 42.7579-6.0109 42.7423-5.02751ZM51.8543 3.44838 53.384 3.44838 53.384-6.10456C53.384-6.97868 53.4152-7.71233 53.4464-8.43036L51.9948-8.43036 51.9479-7.15039 51.9167-7.15039C51.4953-7.97768 50.6211-8.61767 49.3256-8.61767 47.5461-8.61767 45.5013-7.22843 45.5013-4.07534 45.5013-1.5154 47.109 0.186018 49.0758 0.186018 50.4338 0.186018 51.3704-0.469576 51.8231-1.31248L51.8543-1.31248ZM51.8543-3.43536C51.8543-3.20122 51.8075-2.90464 51.745-2.70172 51.386-1.64028 50.5431-1.03151 49.5441-1.03151 47.8583-1.03151 47.0622-2.48318 47.0622-4.15339 47.0622-6.05773 48.0144-7.40014 49.5909-7.40014 50.746-7.40014 51.5577-6.60406 51.7919-5.65189 51.8387-5.46458 51.8543-5.23043 51.8543-5.0119ZM62.9643-8.43036 61.4345-8.43036 61.4345-3.26365C61.4345-2.98268 61.3877-2.70172 61.2941-2.46758 61.0131-1.79637 60.2951-1.07834 59.2805-1.07834 57.8756-1.07834 57.3917-2.15539 57.3917-3.76315L57.3917-8.43036 55.862-8.43036 55.862-3.49779C55.862-0.547623 57.4542 0.186018 58.7653 0.186018 60.2638 0.186018 61.1536-0.703716 61.5594-1.37492L61.5906-1.37492 61.6687-0.00129454 63.0267-0.00129454C62.9799-0.656888 62.9643-1.42175 62.9643-2.29587ZM72.2753-3.93486C72.2909-4.09095 72.3221-4.3407 72.3221-4.65289 72.3221-6.19822 71.6041-8.61767 68.8412-8.61767 66.3905-8.61767 64.892-6.61967 64.892-4.07534 64.892-1.53101 66.453 0.170409 69.0441 0.170409 70.3865 0.170409 71.3075-0.11056 71.8382-0.344701L71.5884-1.45297C71.0109-1.20322 70.3397-1.0159 69.247-1.0159 67.7173-1.0159 66.3905-1.85881 66.3593-3.93486ZM66.3749-5.02751C66.4998-6.08895 67.171-7.52501 68.7319-7.52501 70.449-7.52501 70.8704-6.0109 70.8548-5.02751ZM73.6333-0.407138C74.2264-0.0481227 75.0849 0.170409 76.0059 0.170409 78.0039 0.170409 79.159-0.875419 79.159-2.35831 79.159-3.60706 78.4097-4.3407 76.9425-4.88703 75.8498-5.30848 75.3503-5.62067 75.3503-6.32309 75.3503-6.94747 75.8498-7.46257 76.7551-7.46257 77.5356-7.46257 78.1444-7.18161 78.4722-6.97868L78.8624-8.08695C78.3941-8.36792 77.6449-8.61767 76.7864-8.61767 74.9757-8.61767 73.883-7.5094 73.883-6.15139 73.883-5.13678 74.6011-4.29387 76.1152-3.76315 77.239-3.3417 77.6761-2.93586 77.6761-2.21783 77.6761-1.5154 77.161-0.953466 76.0371-0.953466 75.2723-0.953466 74.4762-1.26565 74.0235-1.56223ZM81.477-10.444 81.477-8.43036 80.1658-8.43036 80.1658-7.25965 81.477-7.25965 81.477-2.6705C81.477-1.6715 81.6331-0.922248 82.0701-0.469576 82.4292-0.0481227 83.0067 0.170409 83.7247 0.170409 84.3023 0.170409 84.7862 0.0923617 85.0827-0.0325133L85.0047-1.18761C84.8174-1.12517 84.5208-1.07834 84.115-1.07834 83.2721-1.07834 82.9755-1.6715 82.9755-2.71733L82.9755-7.25965 85.1608-7.25965 85.1608-8.43036 82.9755-8.43036 82.9755-10.8498ZM93.5508-3.93486C93.5665-4.09095 93.5977-4.3407 93.5977-4.65289 93.5977-6.19822 92.8796-8.61767 90.1168-8.61767 87.6661-8.61767 86.1676-6.61967 86.1676-4.07534 86.1676-1.53101 87.7285 0.170409 90.3197 0.170409 91.6621 0.170409 92.5831-0.11056 93.1138-0.344701L92.864-1.45297C92.2865-1.20322 91.6153-1.0159 90.5226-1.0159 88.9929-1.0159 87.6661-1.85881 87.6349-3.93486ZM87.6505-5.02751C87.7754-6.08895 88.4466-7.52501 90.0075-7.52501 91.7245-7.52501 92.146-6.0109 92.1304-5.02751ZM101.242-12.3639 101.242-7.32209 101.211-7.32209C100.837-8.0089 99.9624-8.61767 98.6668-8.61767 96.622-8.61767 94.8737-6.90064 94.8893-4.09095 94.8893-1.53101 96.4659 0.186018 98.4951 0.186018 99.8687 0.186018 100.899-0.516404 101.367-1.46858L101.398-1.46858 101.476-0.00129454 102.85-0.00129454C102.803-0.578841 102.772-1.42175 102.772-2.171L102.772-12.3639ZM101.242-3.52901C101.242-3.29487 101.227-3.07634 101.18-2.87342 100.899-1.71833 99.9624-1.04712 98.9322-1.04712 97.2776-1.04712 96.4503-2.45197 96.4503-4.15339 96.4503-6.02651 97.3868-7.41575 98.9634-7.41575 100.118-7.41575 100.946-6.61967 101.18-5.63628 101.227-5.44897 101.242-5.18361 101.242-4.99629ZM109.008 3.44838 110.522 3.44838 110.522-1.12517 110.569-1.12517C111.068-0.297873 112.036 0.186018 113.16 0.186018 115.143 0.186018 116.984-1.31248 116.984-4.3407 116.984-6.90064 115.455-8.61767 113.41-8.61767 112.036-8.61767 111.053-8.0089 110.428-6.97868L110.382-6.97868 110.319-8.43036 108.946-8.43036C108.977-7.61867 109.008-6.76015 109.008-5.6675ZM110.522-4.87142C110.522-5.08995 110.585-5.30848 110.631-5.49579 110.928-6.65089 111.896-7.40014 112.942-7.40014 114.565-7.40014 115.455-5.94847 115.455-4.26265 115.455-2.32709 114.518-1.0159 112.895-1.0159 111.802-1.0159 110.881-1.74954 110.6-2.81098 110.569-2.99829 110.522-3.20122 110.522-3.43536ZM124.973-0.00129454C124.879-0.578841 124.832-1.29687 124.832-2.0149L124.832-5.168C124.832-6.85381 124.208-8.61767 121.632-8.61767 120.571-8.61767 119.572-8.32109 118.869-7.86842L119.213-6.85381C119.806-7.24404 120.633-7.47818 121.414-7.47818 123.131-7.47818 123.318-6.22943 123.318-5.54262L123.318-5.35531C120.071-5.38653 118.26-4.26265 118.26-2.23343 118.26-1.0159 119.135 0.186018 120.836 0.186018 122.038 0.186018 122.943-0.407138 123.412-1.06273L123.458-1.06273 123.583-0.00129454ZM123.365-2.8422C123.365-2.68611 123.318-2.5144 123.271-2.35831 123.037-1.64028 122.335-0.937857 121.242-0.937857 120.461-0.937857 119.79-1.40614 119.79-2.40514 119.79-4.04412 121.695-4.3407 123.365-4.29387ZM133.222-8.43036 133.16-7.15039 133.128-7.15039C132.754-7.85281 131.958-8.61767 130.49-8.61767 128.57-8.61767 126.697-6.99429 126.697-4.13778 126.697-1.81198 128.196-0.0325133 130.287-0.0325133 131.599-0.0325133 132.504-0.656888 132.972-1.45297L133.004-1.45297 133.004-0.500795C133.004 1.62208 131.848 2.43377 130.287 2.43377 129.242 2.43377 128.368 2.12158 127.821 1.77817L127.431 2.93327C128.118 3.38594 129.226 3.63569 130.241 3.63569 131.302 3.63569 132.488 3.38594 133.3 2.62108 134.112 1.90305 134.502 0.716737 134.502-1.21883L134.502-6.10456C134.502-7.13478 134.533-7.82159 134.564-8.43036ZM132.988-3.59145C132.988-3.32609 132.957-3.02951 132.863-2.76415 132.535-1.79637 131.677-1.20322 130.74-1.20322 129.086-1.20322 128.258-2.57684 128.258-4.23143 128.258-6.18261 129.304-7.41575 130.756-7.41575 131.88-7.41575 132.613-6.68211 132.894-5.79237 132.972-5.58945 132.988-5.35531 132.988-5.10556ZM143.813-3.93486C143.829-4.09095 143.86-4.3407 143.86-4.65289 143.86-6.19822 143.142-8.61767 140.379-8.61767 137.928-8.61767 136.43-6.61967 136.43-4.07534 136.43-1.53101 137.991 0.170409 140.582 0.170409 141.924 0.170409 142.845-0.11056 143.376-0.344701L143.126-1.45297C142.549-1.20322 141.878-1.0159 140.785-1.0159 139.255-1.0159 137.928-1.85881 137.897-3.93486ZM137.913-5.02751C138.037-6.08895 138.709-7.52501 140.27-7.52501 141.987-7.52501 142.408-6.0109 142.393-5.02751ZM155.196-12.3639 155.196-7.32209 155.165-7.32209C154.79-8.0089 153.916-8.61767 152.621-8.61767 150.576-8.61767 148.828-6.90064 148.843-4.09095 148.843-1.53101 150.42 0.186018 152.449 0.186018 153.823 0.186018 154.853-0.516404 155.321-1.46858L155.352-1.46858 155.43-0.00129454 156.804-0.00129454C156.757-0.578841 156.726-1.42175 156.726-2.171L156.726-12.3639ZM155.196-3.52901C155.196-3.29487 155.181-3.07634 155.134-2.87342 154.853-1.71833 153.916-1.04712 152.886-1.04712 151.231-1.04712 150.404-2.45197 150.404-4.15339 150.404-6.02651 151.341-7.41575 152.917-7.41575 154.072-7.41575 154.9-6.61967 155.134-5.63628 155.181-5.44897 155.196-5.18361 155.196-4.99629ZM162.845-8.61767C160.519-8.61767 158.661-6.96308 158.661-4.13778 158.661-1.48418 160.425 0.186018 162.704 0.186018 164.749 0.186018 166.903-1.172 166.903-4.27826 166.903-6.85381 165.264-8.61767 162.845-8.61767ZM162.814-7.46257C164.624-7.46257 165.327-5.65189 165.327-4.23143 165.327-2.32709 164.234-0.953466 162.782-0.953466 161.284-0.953466 160.222-2.35831 160.222-4.20022 160.222-5.79237 161.003-7.46257 162.814-7.46257ZM175.602-3.93486C175.617-4.09095 175.648-4.3407 175.648-4.65289 175.648-6.19822 174.93-8.61767 172.168-8.61767 169.717-8.61767 168.218-6.61967 168.218-4.07534 168.218-1.53101 169.779 0.170409 172.37 0.170409 173.713 0.170409 174.634-0.11056 175.165-0.344701L174.915-1.45297C174.337-1.20322 173.666-1.0159 172.573-1.0159 171.044-1.0159 169.717-1.85881 169.686-3.93486ZM169.701-5.02751C169.826-6.08895 170.497-7.52501 172.058-7.52501 173.775-7.52501 174.197-6.0109 174.181-5.02751ZM176.956-0.407138C177.549-0.0481227 178.407 0.170409 179.328 0.170409 181.326 0.170409 182.481-0.875419 182.481-2.35831 182.481-3.60706 181.732-4.3407 180.265-4.88703 179.172-5.30848 178.673-5.62067 178.673-6.32309 178.673-6.94747 179.172-7.46257 180.078-7.46257 180.858-7.46257 181.467-7.18161 181.795-6.97868L182.185-8.08695C181.717-8.36792 180.967-8.61767 180.109-8.61767 178.298-8.61767 177.205-7.5094 177.205-6.15139 177.205-5.13678 177.923-4.29387 179.438-3.76315 180.561-3.3417 180.998-2.93586 180.998-2.21783 180.998-1.5154 180.483-0.953466 179.36-0.953466 178.595-0.953466 177.799-1.26565 177.346-1.56223ZM188.132-0.00129454 189.677-0.00129454 189.677-5.05873C189.677-5.32409 189.708-5.58945 189.771-5.77676 190.036-6.63528 190.817-7.35331 191.831-7.35331 193.267-7.35331 193.783-6.21383 193.783-4.85581L193.783-0.00129454 195.312-0.00129454 195.312-5.02751C195.312-7.91525 193.502-8.61767 192.331-8.61767 190.942-8.61767 189.958-7.8372 189.552-7.02551L189.506-7.02551 189.427-8.43036 188.069-8.43036C188.116-7.72793 188.132-7.0099 188.132-6.15139ZM201.369-8.61767C199.043-8.61767 197.185-6.96308 197.185-4.13778 197.185-1.48418 198.949 0.186018 201.228 0.186018 203.273 0.186018 205.427-1.172 205.427-4.27826 205.427-6.85381 203.788-8.61767 201.369-8.61767ZM201.338-7.46257C203.148-7.46257 203.851-5.65189 203.851-4.23143 203.851-2.32709 202.758-0.953466 201.306-0.953466 199.808-0.953466 198.746-2.35831 198.746-4.20022 198.746-5.79237 199.527-7.46257 201.338-7.46257ZM207.714-10.444 207.714-8.43036 206.403-8.43036 206.403-7.25965 207.714-7.25965 207.714-2.6705C207.714-1.6715 207.87-0.922248 208.307-0.469576 208.666-0.0481227 209.244 0.170409 209.962 0.170409 210.539 0.170409 211.023 0.0923617 211.32-0.0325133L211.242-1.18761C211.054-1.12517 210.758-1.07834 210.352-1.07834 209.509-1.07834 209.212-1.6715 209.212-2.71733L209.212-7.25965 211.398-7.25965 211.398-8.43036 209.212-8.43036 209.212-10.8498ZM223.581-3.93486C223.597-4.09095 223.628-4.3407 223.628-4.65289 223.628-6.19822 222.91-8.61767 220.147-8.61767 217.696-8.61767 216.198-6.61967 216.198-4.07534 216.198-1.53101 217.759 0.170409 220.35 0.170409 221.692 0.170409 222.613-0.11056 223.144-0.344701L222.894-1.45297C222.317-1.20322 221.645-1.0159 220.553-1.0159 219.023-1.0159 217.696-1.85881 217.665-3.93486ZM217.681-5.02751C217.805-6.08895 218.477-7.52501 220.038-7.52501 221.755-7.52501 222.176-6.0109 222.16-5.02751ZM224.494-8.43036 227.351-4.29387 224.354-0.00129453 226.039-0.00129453 227.257-1.90564C227.569-2.40514 227.866-2.85781 228.147-3.35731L228.178-3.35731C228.474-2.85781 228.755-2.38953 229.083-1.90564L230.316-0.00129453 232.065-0.00129453 229.099-4.35631 231.971-8.43036 230.316-8.43036 229.146-6.63528C228.865-6.18261 228.584-5.74554 228.303-5.24604L228.256-5.24604C227.975-5.71433 227.71-6.15139 227.397-6.61967L226.195-8.43036ZM235.081-0.00129454 235.081-8.43036 233.536-8.43036 233.536-0.00129454ZM234.301-11.7552C233.754-11.7552 233.348-11.3337 233.348-10.7874 233.348-10.2723 233.739-9.85081 234.269-9.85081 234.878-9.85081 235.268-10.2723 235.253-10.7874 235.253-11.3337 234.878-11.7552 234.301-11.7552ZM237.017-0.407138C237.61-0.0481227 238.468 0.170409 239.389 0.170409 241.387 0.170409 242.542-0.875419 242.542-2.35831 242.542-3.60706 241.793-4.3407 240.326-4.88703 239.233-5.30848 238.734-5.62067 238.734-6.32309 238.734-6.94747 239.233-7.46257 240.138-7.46257 240.919-7.46257 241.528-7.18161 241.855-6.97868L242.246-8.08695C241.777-8.36792 241.028-8.61767 240.17-8.61767 238.359-8.61767 237.266-7.5094 237.266-6.15139 237.266-5.13678 237.984-4.29387 239.498-3.76315 240.622-3.3417 241.059-2.93586 241.059-2.21783 241.059-1.5154 240.544-0.953466 239.42-0.953466 238.656-0.953466 237.859-1.26565 237.407-1.56223ZM244.864-10.444 244.864-8.43036 243.553-8.43036 243.553-7.25965 244.864-7.25965 244.864-2.6705C244.864-1.6715 245.02-0.922248 245.457-0.469576 245.816-0.0481227 246.394 0.170409 247.112 0.170409 247.689 0.170409 248.173 0.0923617 248.47-0.0325133L248.392-1.18761C248.205-1.12517 247.908-1.07834 247.502-1.07834 246.659-1.07834 246.363-1.6715 246.363-2.71733L246.363-7.25965 248.548-7.25965 248.548-8.43036 246.363-8.43036 246.363-10.8498ZM250.885 0.186018C251.526 0.186018 251.931-0.282263 251.931-0.906638 251.931-1.54662 251.51-1.99929 250.901-1.99929 250.292-1.99929 249.855-1.54662 249.855-0.906638 249.855-0.282263 250.277 0.186018 250.885 0.186018Z" fill="#000000" fill-rule="nonzero" fill-opacity="1" transform="matrix(1 0 0 1.00257 512.974 554.466)"/><path d="M0 0 0 45.9913 239.085 45.9913 239.085-56.1984" stroke="#000000" stroke-width="2.88112" stroke-linecap="round" stroke-linejoin="round" stroke-miterlimit="10" stroke-opacity="1" fill="none" fill-rule="nonzero" transform="matrix(1 0 0 -1.00257 484.433 256.198)"/><path d="M0 0 0-57.5824 158.544-57.5824 158.544-83.7815" stroke="#000000" stroke-width="2.88112" stroke-linecap="round" stroke-linejoin="round" stroke-miterlimit="10" stroke-opacity="1" fill="none" fill-rule="nonzero" transform="matrix(1 0 0 -1.00257 639.249 177.318)"/><path d="M0 0C0-3.15151-2.55478-5.70496-5.70496-5.70496-8.85647-5.70496-11.4099-3.15151-11.4099 0-11.4099 3.15151-8.85647 5.70496-5.70496 5.70496-2.55478 5.70496 0 3.15151 0 0Z" stroke="#000000" stroke-width="2.88112" stroke-linecap="round" stroke-linejoin="round" stroke-miterlimit="10" stroke-opacity="1" fill="none" fill-rule="nonzero" transform="matrix(1 0 0 -1.00257 490.139 261.918)"/><g><path d="M0 0C0-3.15151-2.55478-5.70496-5.70496-5.70496-8.85647-5.70496-11.4099-3.15151-11.4099 0-11.4099 3.15151-8.85647 5.70496-5.70496 5.70496-2.55478 5.70496 0 3.15151 0 0Z" stroke="#000000" stroke-width="2.88112" stroke-linecap="round" stroke-linejoin="round" stroke-miterlimit="10" stroke-opacity="1" fill="none" fill-rule="nonzero" transform="matrix(1 0 0 -1.00257 644.955 171.599)"/></g><g><path d="M0 0C0-3.15151-2.55478-5.70496-5.70496-5.70496-8.85647-5.70496-11.4099-3.15151-11.4099 0-11.4099 3.15151-8.85647 5.70496-5.70496 5.70496-2.55478 5.70496 0 3.15151 0 0Z" stroke="#000000" stroke-width="2.88112" stroke-linecap="round" stroke-linejoin="round" stroke-miterlimit="10" stroke-opacity="1" fill="none" fill-rule="nonzero" transform="matrix(1 0 0 -1.00257 803.499 267.638)"/></g><g><path d="M0 0C0-3.15151-2.55478-5.70496-5.70496-5.70496-8.85647-5.70496-11.4099-3.15151-11.4099 0-11.4099 3.15151-8.85647 5.70496-5.70496 5.70496-2.55478 5.70496 0 3.15151 0 0Z" stroke="#000000" stroke-width="2.88112" stroke-linecap="round" stroke-linejoin="round" stroke-miterlimit="10" stroke-opacity="1" fill="none" fill-rule="nonzero" transform="matrix(1 0 0 -1.00257 729.223 319.21)"/></g><g><path d="M0 0-13.4985-13.4985" stroke="#000000" stroke-width="2.88112" stroke-linecap="round" stroke-linejoin="round" stroke-miterlimit="10" stroke-opacity="1" fill="none" fill-rule="nonzero" transform="matrix(1 0 0 -1.00257 447.253 433.763)"/></g><g><path d="M0 0 13.4985-13.4985" stroke="#000000" stroke-width="2.88112" stroke-linecap="round" stroke-linejoin="round" stroke-miterlimit="10" stroke-opacity="1" fill="none" fill-rule="nonzero" transform="matrix(1 0 0 -1.00257 433.754 433.763)"/></g><g><path d="M0 0-13.4985-13.4985" stroke="#000000" stroke-width="2.88112" stroke-linecap="round" stroke-linejoin="round" stroke-miterlimit="10" stroke-opacity="1" fill="none" fill-rule="nonzero" transform="matrix(1 0 0 -1.00257 454.002 237.238)"/></g><path d="M0 0 13.4985-13.4985" stroke="#000000" stroke-width="2.88112" stroke-linecap="round" stroke-linejoin="round" stroke-miterlimit="10" stroke-opacity="1" fill="none" fill-rule="nonzero" transform="matrix(1 0 0 -1.00257 440.503 237.238)"/><path d="M0 0-13.4985-13.4985" stroke="#000000" stroke-width="2.88112" stroke-linecap="round" stroke-linejoin="round" stroke-miterlimit="10" stroke-opacity="1" fill="none" fill-rule="nonzero" transform="matrix(1 0 0 -1.00257 891.838 390.646)"/><g><path d="M0 0 13.4985-13.4985" stroke="#000000" stroke-width="2.88112" stroke-linecap="round" stroke-linejoin="round" stroke-miterlimit="10" stroke-opacity="1" fill="none" fill-rule="nonzero" transform="matrix(1 0 0 -1.00257 878.339 390.646)"/></g><g><path d="M0 0C-4.30502 0-8.24508-1.54912-11.3047-4.11455-14.4296 5.29204-23.2847 12.0826-33.7396 12.0826-45.4452 12.0826-55.1381 3.57242-57.0322-7.5924-58.267-7.23942-59.5657-7.03962-60.9124-7.03962-68.6952-7.03962-75.0036-13.348-75.0036-21.1308-75.0036-28.2903-69.6609-34.1884-62.7465-35.0902L-62.7465-35.2221 0-35.2221C9.72626-35.2221 17.6117-27.338 17.6117-17.6117 17.6117-7.88544 9.72626 0 0 0Z" stroke="#000000" stroke-width="3.01165" stroke-linecap="round" stroke-linejoin="round" stroke-miterlimit="10" stroke-opacity="1" fill="none" fill-rule="nonzero" transform="matrix(1 0 0 -1.00257 508.758 159.999)"/></g><g><path d="M0 0C3.12754 0 5.99-1.12554 8.21311-2.98901 10.4828 3.84415 16.9164 8.77788 24.5115 8.77788 33.0149 8.77788 40.0559 2.59474 41.4332-5.51581 42.3296-5.26007 43.2727-5.11355 44.2517-5.11355 49.9047-5.11355 54.4881-9.69696 54.4881-15.3513 54.4881-20.5528 50.6067-24.8378 45.5837-25.4918L45.5837-25.5891 0-25.5891C-7.06626-25.5891-12.7939-19.8601-12.7939-12.7939-12.7939-5.7276-7.06626 0 0 0Z" stroke="#000000" stroke-width="2.88112" stroke-linecap="round" stroke-linejoin="round" stroke-miterlimit="10" stroke-opacity="1" fill="none" fill-rule="nonzero" transform="matrix(1 0 0 -1.00257 835.277 249.814)"/></g><path d="M0 0C-2.62271 0-5.02297-0.944388-6.88777-2.50682-8.7912 3.22344-14.1858 7.36196-20.5568 7.36196-27.6883 7.36196-33.593 2.17649-34.7479-4.62604-35.4991-4.41025-36.2903-4.28904-37.1108-4.28904-41.8528-4.28904-45.6969-8.13186-45.6969-12.8738-45.6969-17.2361-42.4415-20.8298-38.2284-21.3786L-38.2284-21.4599 0-21.4599C5.92607-21.4599 10.7293-16.6553 10.7293-10.7293 10.7293-4.80452 5.92607 0 0 0Z" stroke="#000000" stroke-width="2.88112" stroke-linecap="round" stroke-linejoin="round" stroke-miterlimit="10" stroke-opacity="1" fill="none" fill-rule="nonzero" transform="matrix(1 0 0 -1.00257 898.127 492.454)"/><g><path d="M0 0C3.12754 0 5.99-1.12554 8.21311-2.98901 10.4828 3.84415 16.9164 8.77788 24.5115 8.77788 33.0149 8.77788 40.0559 2.59474 41.4332-5.51581 42.3296-5.26007 43.2727-5.11355 44.2517-5.11355 49.9047-5.11355 54.4881-9.69696 54.4881-15.3513 54.4881-20.5528 50.6067-24.8378 45.5837-25.4918L45.5837-25.5891 0-25.5891C-7.06626-25.5891-12.7939-19.8601-12.7939-12.7939-12.7939-5.7276-7.06626 0 0 0Z" stroke="#000000" stroke-width="2.88112" stroke-linecap="round" stroke-linejoin="round" stroke-miterlimit="10" stroke-opacity="1" fill="none" fill-rule="nonzero" transform="matrix(1 0 0 -1.00257 379.265 469.753)"/></g><g><path d="M0 0C0 0 80.5061 65.637 189.89 35.3979 304.794 3.6337 327.795-78.2976 327.795-78.2976" stroke="#000000" stroke-width="2.88112" stroke-linecap="round" stroke-linejoin="round" stroke-miterlimit="10" stroke-dasharray="4.35298 10.1552" stroke-opacity="1" fill="none" fill-rule="nonzero" transform="matrix(1 0 0 -1.00257 526.369 151.528)"/></g><g><path d="M0 0C-31.2101-4.84049-46.8997-71.0795-11.7935-97.3745" stroke="#000000" stroke-width="2.68664" stroke-linecap="round" stroke-linejoin="round" stroke-miterlimit="10" stroke-dasharray="4.0586 9.46919" stroke-opacity="1" fill="none" fill-rule="nonzero" transform="matrix(1 0 0 -1.00257 404.812 342.789)"/></g><g><path d="M0 0C0 0 53.4638-23.3713 76.8977 9.23476" stroke="#000000" stroke-width="2.88112" stroke-linecap="round" stroke-linejoin="round" stroke-miterlimit="10" stroke-dasharray="4.35298 10.1552" stroke-opacity="1" fill="none" fill-rule="nonzero" transform="matrix(1 0 0 -1.00257 797.793 534.403)"/></g><path d="M0 0 0 33.7609" stroke="#000000" stroke-width="2.88112" stroke-linecap="round" stroke-linejoin="round" stroke-miterlimit="10" stroke-opacity="1" fill="none" fill-rule="nonzero" transform="matrix(1 0 0 -1.00257 543.448 267.638)"/><g><path d="M0 0 0 16.8232" stroke="#000000" stroke-width="2.88112" stroke-linecap="round" stroke-linejoin="round" stroke-miterlimit="10" stroke-opacity="1" fill="none" fill-rule="nonzero" transform="matrix(1 0 0 -1.00257 535.298 267.638)"/></g><path d="M0 0 0 24.6899" stroke="#000000" stroke-width="2.88112" stroke-linecap="round" stroke-linejoin="round" stroke-miterlimit="10" stroke-opacity="1" fill="none" fill-rule="nonzero" transform="matrix(1 0 0 -1.00257 667.533 275.468)"/><path d="M0 0 0 10.2404" stroke="#000000" stroke-width="2.88112" stroke-linecap="round" stroke-linejoin="round" stroke-miterlimit="10" stroke-opacity="1" fill="none" fill-rule="nonzero" transform="matrix(1 0 0 -1.00257 658.274 273.357)"/><g><path d="M0 0 0 17.1162" stroke="#000000" stroke-width="2.88112" stroke-linecap="round" stroke-linejoin="round" stroke-miterlimit="10" stroke-opacity="1" fill="none" fill-rule="nonzero" transform="matrix(1 0 0 -1.00257 650.062 273.357)"/></g><path d="M0 0 0 16.8804" stroke="#000000" stroke-width="2.88112" stroke-linecap="round" stroke-linejoin="round" stroke-miterlimit="10" stroke-opacity="1" fill="none" fill-rule="nonzero" transform="matrix(1 0 0 -1.00257 551.281 267.638)"/><path d="M0 0 0 7.55111" stroke="#000000" stroke-width="2.88112" stroke-linecap="round" stroke-linejoin="round" stroke-miterlimit="10" stroke-opacity="1" fill="none" fill-rule="nonzero" transform="matrix(1 0 0 -1.00257 775.059 272.348)"/><path d="M0 0 0 18.3949" stroke="#000000" stroke-width="2.88112" stroke-linecap="round" stroke-linejoin="round" stroke-miterlimit="10" stroke-opacity="1" fill="none" fill-rule="nonzero" transform="matrix(1 0 0 -1.00257 766.909 272.348)"/><path d="M0 0 0 13.1388" stroke="#000000" stroke-width="2.88112" stroke-linecap="round" stroke-linejoin="round" stroke-miterlimit="10" stroke-opacity="1" fill="none" fill-rule="nonzero" transform="matrix(1 0 0 -1.00257 782.891 272.348)"/><path d="M0 0C-0.187812-0.407592-0.438228-0.709956-0.751248-0.908424-1.06427-1.10689-1.41192-1.20546-1.79021-1.20546-2.1645-1.20546-2.50949-1.10023-2.8265-0.891108-3.14219-0.684648-3.39127-0.374292-3.57376 0.035964-3.75491 0.447552-3.84548 0.94572-3.84548 1.53047-3.84548 2.08458-3.76157 2.57076-3.58841 2.98901-3.41791 3.40992-3.17682 3.7296-2.86513 3.95338-2.55478 4.17715-2.20046 4.29037-1.80619 4.29037-1.42657 4.29037-1.07759 4.18115-0.757908 3.9627-0.43956 3.74292-0.187812 3.4259 0 3.01432 0.187812 2.59873 0.27972 2.10456 0.27972 1.53047 0.27972 0.920412 0.187812 0.410256 0 0M1.41858 9.11221C1.09091 9.11221 0.840492 8.99899 0.664668 8.77255 0.48618 8.54611 0.398268 8.21045 0.398268 7.76822L0.398268 4.58341C-0.00666 5.02297-0.422244 5.35331-0.849816 5.56776-1.27739 5.77955-1.8022 5.88611-2.42291 5.88611-3.49783 5.88611-4.36496 5.50915-5.0243 4.75657-5.68231 4.00266-6.01265 2.95038-6.01265 1.60106-6.01265 0.964368-5.92873 0.370296-5.76356-0.177156-5.59706-0.72594-5.35464-1.20146-5.03096-1.60772-4.71128-2.01398-4.33033-2.327-3.88944-2.54545-3.44988-2.7639-2.97036-2.87312-2.45354-2.87312-2.06327-2.87312-1.70496-2.81984-1.37596-2.71062-1.04695-2.60273-0.740592-2.44422-0.458208-2.23643-0.175824-2.0273 0.110556-1.75691 0.398268-1.42524L0.398268-1.63969C0.398268-2.03396 0.495504-2.33899 0.687312-2.55211 0.880452-2.76656 1.12421-2.87312 1.41858-2.87312 1.71961-2.87312 1.9647-2.76923 2.15518-2.56543 2.34565-2.35897 2.43889-2.05128 2.43889-1.63969L2.43889 7.87878C2.43889 8.28637 2.35098 8.59007 2.17382 8.80052 1.99667 9.00832 1.74625 9.11221 1.41858 9.11221" fill="#000000" fill-rule="nonzero" fill-opacity="1" transform="matrix(1 0 0 -1.00257 546.789 662.685)"/><path d="M0 0C0.074592 0.727272 0.282384 1.27739 0.628704 1.64902 0.97236 2.02198 1.41458 2.20579 1.95271 2.20579 2.51615 2.20579 2.97036 2.02331 3.31668 1.65701 3.66167 1.29071 3.86014 0.73926 3.91342 0ZM5.53313-0.984348C5.84482-0.821844 5.99933-0.47286 5.99933 0.071928 5.99933 0.655344 5.84881 1.2321 5.54911 1.79554 5.24941 2.35764 4.79786 2.81984 4.1918 3.17416 3.58974 3.5298 2.86646 3.70696 2.02464 3.70696 1.37462 3.70696 0.784548 3.60439 0.25308 3.3966-0.27972 3.18748-0.728604 2.88911-1.09091 2.49883-1.45454 2.10856-1.7316 1.63969-1.92074 1.0949-2.11122 0.550116-2.20579-0.041292-2.20579-0.67932-2.20579-2.03396-1.82084-3.10622-1.05228-3.89743-0.282384-4.68731 0.795204-5.08291 2.18182-5.08291 2.78788-5.08291 3.32467-5.00432 3.78954-4.84582 4.25707-4.68731 4.64335-4.48751 4.95238-4.24775 5.26007-4.00932 5.4905-3.7589 5.64368-3.49783 5.79686-3.23676 5.87412-3.00899 5.87412-2.81318 5.87412-2.59207 5.80352-2.42158 5.66633-2.30036 5.53046-2.17915 5.35198-2.11788 5.13086-2.11788 4.9244-2.11788 4.7659-2.1645 4.65534-2.25907 4.38628-2.51348 4.16783-2.71195 4-2.86114 3.83083-3.00899 3.64702-3.14752 3.44588-3.27672 3.24608-3.40726 3.03962-3.49916 2.82517-3.56177 2.61205-3.62171 2.37629-3.65101 2.11788-3.65101 1.73426-3.65101 1.38128-3.55777 1.06294-3.3673 0.744588-3.17815 0.487512-2.8971 0.295704-2.52148 0.103896-2.14585 0.003996-1.71562 0-1.22544L4.21978-1.22544C4.78454-1.22544 5.22277-1.14419 5.53313-0.984348" fill="#000000" fill-rule="nonzero" fill-opacity="1" transform="matrix(1 0 0 -1.00257 552.484 660.469)"/><path d="M0 0C-0.424908 0.225108-0.971028 0.41958-1.63969 0.584748-2.20446 0.721944-2.64668 0.837828-2.9677 0.9324-3.29004 1.02564-3.54578 1.14552-3.73493 1.29204-3.9254 1.4359-4.01998 1.62238-4.01998 1.85015-4.01998 2.09657-3.89077 2.30303-3.63236 2.46953-3.37396 2.63603-3.05028 2.71861-2.66 2.71861-2.27905 2.71861-1.97935 2.65601-1.75824 2.52814-1.53713 2.40293-1.34532 2.23376-1.18148 2.02198-0.980352 1.77023-0.804528 1.57975-0.647352 1.45454-0.49284 1.328-0.305028 1.26274-0.082584 1.26274 0.223776 1.26274 0.45954 1.34399 0.624708 1.50116 0.789876 1.65967 0.873792 1.86214 0.873792 2.10989 0.873792 2.33766 0.796536 2.56943 0.63936 2.80519 0.484848 3.04229 0.258408 3.25807-0.03996 3.45388-0.335664 3.64835-0.708624 3.80419-1.15484 3.91874-1.5984 4.03596-2.10056 4.09457-2.66 4.09457-3.37262 4.09457-3.97868 3.98002-4.48085 3.74958-4.98434 3.51914-5.36663 3.21278-5.62504 2.82917-5.88344 2.44422-6.01265 2.0353-6.01265 1.60373-6.01265 1.12021-5.87279 0.709956-5.59307 0.378288-5.31335 0.04662-4.94172-0.221112-4.47419-0.422244-4.00799-0.627372-3.40326-0.820512-2.66-1.00433-2.002-1.16284-1.52914-1.32934-1.24142-1.5025-0.953712-1.67832-0.809856-1.95271-0.809856-2.33233-0.809856-2.58008-0.948384-2.79986-1.22411-2.993-1.50116-3.18614-1.85548-3.28072-2.28838-3.28072-2.82118-3.28072-3.24076-3.18748-3.54978-2.997-3.85747-2.80786-4.12387-2.52148-4.34498-2.1352-4.45421-1.9354-4.57009-1.77955-4.69264-1.669-4.81385-1.55844-4.98701-1.5025-5.21212-1.5025-5.47052-1.5025-5.68631-1.58774-5.85281-1.75558-6.0233-1.92474-6.10722-2.1272-6.10722-2.3643-6.10722-2.72394-5.97535-3.08092-5.71162-3.43656-5.44788-3.79087-5.03896-4.08791-4.48618-4.325-3.9334-4.5621-3.26873-4.68198-2.49484-4.68198-1.68232-4.68198-0.993672-4.57276-0.42624-4.35431 0.13986-4.13586 0.568764-3.81218 0.857808-3.38861 1.14818-2.96503 1.29337-2.45354 1.29337-1.85814 1.29337-1.46387 1.18415-1.11222 0.9657-0.804528 0.74592-0.494172 0.423576-0.22644 0 0" fill="#000000" fill-rule="nonzero" fill-opacity="1" transform="matrix(1 0 0 -1.00257 565.246 660.872)"/><g><path d="M0 0C-0.317016 0-0.574092-0.107892-0.771228-0.325008-0.969696-0.540792-1.06693-0.861804-1.06693-1.28938L-1.06693-7.4632C-1.06693-7.88544-0.969696-8.20778-0.771228-8.43556-0.574092-8.66333-0.317016-8.77655 0-8.77655 0.317016-8.77655 0.576756-8.66599 0.783216-8.44488 0.988344-8.22377 1.09091-7.8961 1.09091-7.4632L1.09091-1.22677C1.09091-0.841824 0.988344-0.540792 0.783216-0.325008 0.576756-0.107892 0.317016 0 0 0" fill="#000000" fill-rule="nonzero" fill-opacity="1" transform="matrix(1 0 0 -1.00257 568.72 656.767)"/></g><path d="M0 0C-0.289044 0-0.544788-0.097236-0.763236-0.297036-0.981684-0.494172-1.09091-0.74592-1.09091-1.05095-1.09091-1.38928-0.984348-1.65035-0.771228-1.83416-0.558108-2.01931-0.301032-2.11122 0-2.11122 0.289044-2.11122 0.53946-2.01798 0.751248-1.83017 0.960372-1.64236 1.06693-1.38395 1.06693-1.05095 1.06693-0.708624 0.95904-0.448884 0.743256-0.269064 0.527472-0.087912 0.27972 0 0 0" fill="#000000" fill-rule="nonzero" fill-opacity="1" transform="matrix(1 0 0 -1.00257 568.744 653.645)"/><path d="M0 0C-0.201132-0.38628-0.460872-0.676656-0.780552-0.868464-1.0989-1.0616-1.43723-1.15751-1.79554-1.15751-2.4016-1.15751-2.89577-0.933732-3.27672-0.484848-3.659-0.037296-3.85081 0.624708-3.85081 1.4985-3.85081 2.36164-3.66566 3.0303-3.29404 3.49916-2.92241 3.96803-2.42957 4.20246-1.81152 4.20246-1.17882 4.20246-0.668664 3.95737-0.281052 3.46586 0.10656 2.97702 0.2997 2.29104 0.2997 1.41059 0.2997 0.85914 0.198468 0.387612 0 0M1.36663 5.81551C1.07759 5.81551 0.840492 5.71162 0.655344 5.50782 0.470196 5.30136 0.378288 5.01232 0.378288 4.63669L0.378288 4.34498C-0.005328 4.84582-0.422244 5.21212-0.869796 5.44788-1.31868 5.68231-1.84882 5.79953-2.4602 5.79953-2.97036 5.79953-3.44056 5.70762-3.8668 5.5278-4.29437 5.34532-4.66999 5.07359-4.99766 4.71661-5.324 4.3583-5.57442 3.91741-5.75158 3.39527-5.92873 2.87446-6.01664 2.28971-6.01664 1.63969-6.01664 0.771228-5.87279 0.005328-5.58108-0.65934-5.29337-1.32401-4.87778-1.83949-4.33699-2.20846-3.7962-2.57875-3.16483-2.76257-2.44422-2.76257-1.84349-2.76257-1.32534-2.64136-0.891108-2.39893-0.455544-2.15651-0.071928-1.80353 0.25974-1.33866 0.249084-2.04595 0.234432-2.55744 0.21312-2.87712 0.191808-3.1968 0.118548-3.49517-0.005328-3.77356-0.129204-4.05328-0.344988-4.27039-0.65268-4.42624-0.960372-4.58341-1.3946-4.65934-1.95404-4.65934-2.2271-4.65934-2.46953-4.63403-2.68132-4.58474-2.89177-4.53413-3.07292-4.4582-3.22211-4.35564-3.37129-4.25174-3.50982-4.13053-3.6337-3.98401-3.75757-3.84016-3.87745-3.69364-3.992-3.55244-4.23043-3.27406-4.50749-3.1342-4.82317-3.1342-5.07625-3.1342-5.29337-3.21678-5.47052-3.38328-5.65034-3.54845-5.74092-3.7629-5.74092-4.02664-5.74092-4.37429-5.58108-4.71395-5.2654-5.04295-4.94838-5.37196-4.49816-5.63969-3.91475-5.85014-3.32867-6.05794-2.66533-6.16183-1.92208-6.16183-1.10956-6.16183-0.431568-6.07925 0.11322-5.91541 0.65934-5.75291 1.10023-5.50249 1.43856-5.1655 1.77556-4.82717 2.02064-4.40093 2.17249-3.88544 2.32567-3.3673 2.40293-2.75191 2.40293-2.03396L2.40293 4.23443C2.40293 4.74592 2.335 5.13619 2.19514 5.40925 2.05927 5.67965 1.78355 5.81551 1.36663 5.81551" fill="#000000" fill-rule="nonzero" fill-opacity="1" transform="matrix(1 0 0 -1.00257 576.863 662.598)"/><path d="M0 0C-0.21978 0.45288-0.555444 0.803196-1.003 1.05095-1.45188 1.2987-1.95937 1.42258-2.52947 1.42258-3.11422 1.42258-3.63236 1.30536-4.08125 1.07093-4.5328 0.836496-4.94838 0.468864-5.32667-0.031968L-5.32667 0.229104C-5.32667 0.48618-5.37329 0.70596-5.4652 0.88578-5.55844 1.06294-5.68098 1.19747-5.83283 1.28804-5.98601 1.37729-6.15784 1.42258-6.34831 1.42258-6.65867 1.42258-6.90376 1.32134-7.08358 1.11888-7.26206 0.915084-7.35131 0.608724-7.35131 0.195804L-7.35131-6.03929C-7.35131-6.46286-7.25008-6.78521-7.05028-7.01298-6.85048-7.24075-6.59606-7.35397-6.28304-7.35397-5.96203-7.35397-5.69963-7.24475-5.49716-7.02497-5.2947-6.80652-5.19347-6.47752-5.19347-6.03929L-5.19347-3.33666C-5.19347-2.45621-5.14019-1.85681-5.03496-1.53446-4.88711-1.13486-4.65667-0.81918-4.33832-0.588744-4.02397-0.35964-3.67232-0.24642-3.28871-0.24642-2.6973-0.24642-2.30436-0.434232-2.10589-0.809856-1.90876-1.18814-1.80886-1.73293-1.80886-2.44289L-1.80886-6.03929C-1.80886-6.46286-1.71029-6.78521-1.50916-7.01298-1.30802-7.24075-1.04828-7.35397-0.72594-7.35397-0.410256-7.35397-0.15318-7.24208 0.043956-7.02097 0.242424-6.79986 0.340992-6.47219 0.340992-6.03929L0.340992-2.02464C0.340992-1.54912 0.31968-1.16017 0.277056-0.855144 0.235764-0.548784 0.142524-0.263736 0 0" fill="#000000" fill-rule="nonzero" fill-opacity="1" transform="matrix(1 0 0 -1.00257 588.023 658.194)"/><g><path d="M0 0C0.074592 0.727272 0.282384 1.27739 0.627372 1.64902 0.973692 2.02198 1.41458 2.20579 1.95271 2.20579 2.51748 2.20579 2.97169 2.02331 3.31668 1.65701 3.66167 1.29071 3.86147 0.73926 3.91342 0ZM5.53446-0.984348C5.84482-0.821844 6.00066-0.47286 6.00066 0.071928 6.00066 0.655344 5.85014 1.2321 5.55044 1.79554 5.24941 2.35764 4.79786 2.81984 4.19314 3.17416 3.58974 3.5298 2.86646 3.70696 2.02464 3.70696 1.37596 3.70696 0.78588 3.60439 0.25308 3.3966-0.278388 3.18748-0.727272 2.88911-1.09091 2.49883-1.45454 2.10856-1.7316 1.63969-1.92074 1.0949-2.10989 0.550116-2.20579-0.041292-2.20579-0.67932-2.20579-2.03396-1.82084-3.10622-1.05095-3.89743-0.281052-4.68731 0.796536-5.08291 2.18182-5.08291 2.78788-5.08291 3.32467-5.00432 3.79087-4.84582 4.2584-4.68731 4.64335-4.48751 4.95238-4.24775 5.2614-4.00932 5.49184-3.7589 5.64502-3.49783 5.7982-3.23676 5.87412-3.00899 5.87412-2.81318 5.87412-2.59207 5.80486-2.42158 5.66899-2.30036 5.5318-2.17915 5.35198-2.11788 5.13086-2.11788 4.92574-2.11788 4.76723-2.1645 4.65667-2.25907 4.38761-2.51348 4.16783-2.71195 4.00133-2.86114 3.83083-3.00899 3.64702-3.14752 3.44722-3.27672 3.24742-3.40726 3.03962-3.49916 2.82784-3.56177 2.61205-3.62171 2.37762-3.65101 2.11788-3.65101 1.73426-3.65101 1.38262-3.55777 1.06294-3.3673 0.744588-3.17815 0.490176-2.8971 0.297036-2.52148 0.103896-2.14585 0.005328-1.71562 0-1.22544L4.22111-1.22544C4.78588-1.22544 5.22277-1.14419 5.53446-0.984348" fill="#000000" fill-rule="nonzero" fill-opacity="1" transform="matrix(1 0 0 -1.00257 591.604 660.469)"/></g><path d="M0 0C-0.18648-0.407592-0.436896-0.709956-0.751248-0.908424-1.06427-1.10689-1.41059-1.20546-1.79154-1.20546-2.16583-1.20546-2.50949-1.10023-2.82517-0.891108-3.14219-0.684648-3.39127-0.374292-3.57376 0.035964-3.75491 0.447552-3.84682 0.94572-3.84682 1.53047-3.84682 2.08458-3.76157 2.57076-3.58974 2.98901-3.41791 3.40992-3.17682 3.7296-2.86646 3.95338-2.55478 4.17715-2.20046 4.29037-1.80619 4.29037-1.42657 4.29037-1.07892 4.18115-0.75924 3.9627-0.440892 3.74292-0.18648 3.4259 0 3.01432 0.187812 2.59873 0.27972 2.10456 0.27972 1.53047 0.27972 0.920412 0.187812 0.410256 0 0M1.41858 9.11221C1.09224 9.11221 0.840492 8.99899 0.663336 8.77255 0.487512 8.54611 0.398268 8.21045 0.398268 7.76822L0.398268 4.58341C-0.00666 5.02297-0.422244 5.35331-0.849816 5.56776-1.27606 5.77955-1.80086 5.88611-2.42291 5.88611-3.49916 5.88611-4.36496 5.50915-5.0243 4.75657-5.68364 4.00266-6.01132 2.95038-6.01132 1.60106-6.01132 0.964368-5.92873 0.370296-5.76356-0.177156-5.59706-0.72594-5.35331-1.20146-5.03096-1.60772-4.70995-2.01398-4.329-2.327-3.88944-2.54545-3.44988-2.7639-2.97169-2.87312-2.45488-2.87312-2.0646-2.87312-1.70496-2.81984-1.37462-2.71062-1.04562-2.60273-0.741924-2.44422-0.458208-2.23643-0.177156-2.0273 0.109224-1.75691 0.398268-1.42524L0.398268-1.63969C0.398268-2.03396 0.495504-2.33899 0.687312-2.55211 0.880452-2.76656 1.12421-2.87312 1.41858-2.87312 1.72094-2.87312 1.9647-2.76923 2.15384-2.56543 2.34432-2.35897 2.43889-2.05128 2.43889-1.63969L2.43889 7.87878C2.43889 8.28637 2.35098 8.59007 2.17382 8.80052 1.99667 9.00832 1.74625 9.11221 1.41858 9.11221" fill="#000000" fill-rule="nonzero" fill-opacity="1" transform="matrix(1 0 0 -1.00257 604.224 662.685)"/><path d="M0 0C-0.39294-0.47286-0.860472-0.707292-1.4026-0.707292-2.04062-0.707292-2.55611-0.475524-2.94905-0.014652-3.34199 0.44622-3.53779 1.10556-3.53779 1.96603-3.53779 2.55078-3.44588 3.05561-3.26074 3.47918-3.07692 3.90409-2.82384 4.22777-2.5015 4.45154-2.18182 4.67532-1.81418 4.78854-1.4026 4.78854-1.003 4.78854-0.651348 4.67532-0.351648 4.45154-0.051948 4.22777 0.17982 3.91075 0.343656 3.49916 0.507492 3.08758 0.588744 2.5974 0.588744 2.02864 0.588744 1.14818 0.391608 0.471528 0 0M1.05228 5.87545C0.510156 6.21511-0.117216 6.38428-0.833832 6.38428-1.45588 6.38428-1.97802 6.27239-2.39893 6.04861-2.82118 5.82484-3.23543 5.50249-3.64036 5.08025L-3.64036 8.37695C-3.64036 8.77255-3.73093 9.07625-3.90942 9.2907-4.08924 9.50382-4.34365 9.61038-4.67665 9.61038-4.99234 9.61038-5.24009 9.49849-5.41591 9.27472-5.59307 9.05094-5.67965 8.71927-5.67965 8.28238L-5.67965-1.14152C-5.67965-1.54645-5.58907-1.85548-5.40792-2.06327-5.22544-2.27106-4.98168-2.37496-4.67665-2.37496-4.37562-2.37496-4.12787-2.27106-3.9334-2.06327-3.73892-1.85548-3.64036-1.54645-3.64036-1.14152L-3.64036-0.927072C-3.40459-1.20013-3.21278-1.40926-3.0676-1.54379-2.92241-1.68232-2.74658-1.81552-2.54146-1.94339-2.33633-2.07392-2.08724-2.17782-1.79554-2.25508-1.5025-2.335-1.19081-2.37496-0.857808-2.37496-0.315684-2.37496 0.182484-2.26573 0.6327-2.04728 1.08158-1.82884 1.46653-1.51848 1.78355-1.11755 2.09923-0.716616 2.34032-0.243756 2.50682 0.302364 2.67199 0.848484 2.75591 1.44522 2.75591 2.09923 2.75591 2.98501 2.60672 3.75091 2.30836 4.39693 2.00999 5.04162 1.59174 5.53446 1.05228 5.87545" fill="#000000" fill-rule="nonzero" fill-opacity="1" transform="matrix(1 0 0 -1.00257 617.085 663.185)"/><g><path d="M0 0C-0.149184 0.087912-0.30636 0.131868-0.470196 0.131868-0.697968 0.131868-0.87246 0.090576-0.996336 0.011988-1.12021-0.0666-1.23743-0.21978-1.34798-0.44622-1.45854-0.67266-1.58242-0.987012-1.71828-1.38661L-3.44988-6.32833-5.27738-1.01498C-5.3986-0.64602-5.53712-0.362304-5.69563-0.165168-5.85414 0.030636-6.08857 0.131868-6.39893 0.131868-6.57875 0.131868-6.75191 0.082584-6.91708-0.011988-7.08224-0.10656-7.21278-0.2331-7.30868-0.391608-7.40326-0.548784-7.45121-0.71928-7.45121-0.904428-7.45121-1.07759-7.36996-1.35997-7.20612-1.74226L-4.54878-8.43023-4.74725-8.91241C-4.8951-9.26672-5.02564-9.53312-5.13886-9.71428-5.25208-9.89809-5.37995-10.0246-5.52247-10.0979-5.66366-10.1738-5.85947-10.2098-6.10855-10.2098-6.20712-10.2098-6.32567-10.1938-6.46286-10.1632-6.57342-10.1299-6.68664-10.1139-6.80386-10.1139-7.09823-10.1139-7.32067-10.1831-7.46986-10.3163-7.6217-10.4509-7.6963-10.6427-7.6963-10.8891-7.6963-11.2527-7.53779-11.5032-7.22077-11.6417-6.90642-11.7775-6.4309-11.8455-5.79953-11.8455-5.15084-11.8455-4.63536-11.7469-4.25308-11.5498-3.87079-11.3526-3.56443-11.0676-3.33266-10.6986-3.1009-10.3297-2.86247-9.82217-2.62004-9.17482L0.19314-1.80486C0.262404-1.61705 0.31968-1.4279 0.367632-1.24409 0.415584-1.06027 0.448884-0.916416 0.471528-0.817848 0.471528-0.654012 0.428904-0.4995 0.347652-0.351648 0.2664-0.203796 0.150516-0.08658 0 0" fill="#000000" fill-rule="nonzero" fill-opacity="1" transform="matrix(1 0 0 -1.00257 627.385 656.899)"/></g><g><path d="M0 0C-0.709956 0-1.27073-0.091908-1.67832-0.27306-2.08724-0.455544-2.38028-0.744588-2.54945-1.14152-2.72261-1.54246-2.80386-2.07659-2.80386-2.75324L-2.80386-3.40326-3.31934-3.40326C-4.04262-3.40326-4.40492-3.659-4.40492-4.17848-4.40492-4.41025-4.31701-4.5994-4.14252-4.74325-3.9667-4.8911-3.72294-4.96037-3.39926-4.96037L-2.80386-4.96037-2.80386-10.68C-2.80386-11.1049-2.70529-11.4286-2.5015-11.651-2.29637-11.8788-2.04329-11.9893-1.73826-11.9893-1.41325-11.9893-1.15351-11.8788-0.953712-11.651-0.747252-11.4286-0.64602-11.1049-0.64602-10.68L-0.64602-4.96037-0.11988-4.96037C0.267732-4.96037 0.568764-4.91242 0.787212-4.81651 1.00832-4.72327 1.11355-4.49683 1.11355-4.14785 1.11355-3.64968 0.704628-3.40326-0.11988-3.40326L-0.64602-3.40326-0.64602-2.88911C-0.64602-2.4602-0.588744-2.1312-0.483516-1.90343-0.367632-1.67566-0.11988-1.55844 0.269064-1.55844 0.41292-1.55844 0.590076-1.57709 0.788544-1.6024 0.995004-1.63703 1.14419-1.65301 1.2281-1.65301 1.40659-1.65301 1.56377-1.58108 1.69164-1.44122 1.82484-1.2987 1.89144-1.12687 1.89144-0.928404 1.89144-0.30636 1.26407 0 0 0" fill="#000000" fill-rule="nonzero" fill-opacity="1" transform="matrix(1 0 0 -1.00257 657.222 653.543)"/></g><g><path d="M0 0C-0.42624 0.227772-0.861804 0.33966-1.31868 0.33966-1.77422 0.33966-2.13253 0.227772-2.40959 0-2.67865-0.227772-2.94239-0.562104-3.19813-1.00566-3.21678-0.562104-3.30602-0.227772-3.4632 0-3.62171 0.227772-3.87878 0.33966-4.23976 0.33966-4.93906 0.33966-5.28937-0.145188-5.28937-1.11622L-5.28937-7.12886C-5.28937-7.5591-5.18548-7.88544-4.98834-8.10522-4.78987-8.33033-4.53546-8.43822-4.21711-8.43822-3.90276-8.43822-3.64169-8.33166-3.43656-8.11055-3.23676-7.89343-3.1262-7.56443-3.1262-7.12886L-3.1262-5.324C-3.1262-4.67665-3.10756-4.12654-3.06626-3.67366-3.02231-3.2261-2.94772-2.8345-2.83982-2.50549-2.72794-2.18182-2.57209-1.93806-2.36963-1.76756-2.17116-1.60506-1.91142-1.51981-1.5944-1.51981-1.3653-1.51981-1.09624-1.5691-0.793872-1.66367-0.491508-1.7609-0.2997-1.81285-0.217116-1.81285-0.00666-1.81285 0.189144-1.7276 0.370296-1.55311 0.550116-1.38661 0.642024-1.1655 0.642024-0.904428 0.642024-0.530136 0.428904-0.227772 0 0" fill="#000000" fill-rule="nonzero" fill-opacity="1" transform="matrix(1 0 0 -1.00257 664.094 657.104)"/></g><path d="M0 0C0.07326 0.727272 0.283716 1.27472 0.628704 1.64635 0.975024 2.02064 1.41725 2.2018 1.95404 2.2018 2.52148 2.2018 2.97036 2.02198 3.31801 1.65301 3.66566 1.29071 3.86014 0.736596 3.91342 0ZM5.53446-0.98568C5.84482-0.823176 6.00199-0.471528 6.00199 0.067932 6.00199 0.655344 5.85281 1.2281 5.55044 1.7942 5.25474 2.35897 4.79786 2.81851 4.19447 3.17149 3.59107 3.5298 2.86646 3.70829 2.02464 3.70829 1.37462 3.70829 0.78588 3.60439 0.254412 3.39793-0.27972 3.19014-0.724608 2.89177-1.08691 2.50016-1.45588 2.10722-1.73293 1.64236-1.91808 1.0949-2.11122 0.548784-2.20846-0.043956-2.20846-0.681984-2.20846-2.0353-1.81951-3.10889-1.04962-3.90143-0.282384-4.6913 0.795204-5.08424 2.18581-5.08424 2.78921-5.08424 3.32734-5.00566 3.79354-4.84715 4.25707-4.6913 4.64468-4.49017 4.9577-4.25174 5.26673-4.01065 5.49583-3.7629 5.65168-3.49783 5.79953-3.23942 5.87412-3.01298 5.87412-2.81585 5.87412-2.59474 5.81018-2.42557 5.67166-2.30303 5.5318-2.18048 5.35464-2.11788 5.13086-2.11788 4.9284-2.11788 4.77122-2.1685 4.658-2.26307 4.38894-2.51482 4.16916-2.71595 4.00133-2.86114 3.83083-3.01298 3.64968-3.15018 3.44855-3.27672 3.24875-3.40726 3.03829-3.50316 2.82784-3.56177 2.61472-3.6257 2.38028-3.65234 2.12054-3.65234 1.73426-3.65234 1.38528-3.56044 1.0656-3.36996 0.744588-3.17815 0.490176-2.8971 0.295704-2.52547 0.102564-2.14985 0.007992-1.71695 0-1.2281L4.22377-1.2281C4.78854-1.2281 5.2241-1.14685 5.53446-0.98568" fill="#000000" fill-rule="nonzero" fill-opacity="1" transform="matrix(1 0 0 -1.00257 666.667 660.466)"/><path d="M0 0C0.070596 0.727272 0.281052 1.27472 0.62604 1.64635 0.971028 2.02064 1.41325 2.2018 1.95138 2.2018 2.51748 2.2018 2.96903 2.02198 3.31801 1.65301 3.66034 1.29071 3.86014 0.736596 3.91342 0ZM5.53313-0.98568C5.84215-0.823176 6.00199-0.471528 6.00199 0.067932 6.00199 0.655344 5.84748 1.2281 5.54778 1.7942 5.25074 2.35897 4.79786 2.81851 4.19846 3.17149 3.58574 3.5298 2.86247 3.70829 2.02331 3.70829 1.37462 3.70829 0.781884 3.60439 0.251748 3.39793-0.282384 3.19014-0.729936 2.89177-1.09224 2.50016-1.45721 2.10722-1.73293 1.64236-1.92074 1.0949-2.11388 0.548784-2.20979-0.043956-2.20979-0.681984-2.20979-2.0353-1.82351-3.10889-1.05494-3.90143-0.282384-4.6913 0.79254-5.08424 2.18182-5.08424 2.78521-5.08424 3.326-5.00566 3.79087-4.84715 4.25174-4.6913 4.64335-4.49017 4.95238-4.25174 5.26406-4.01065 5.49583-3.7629 5.64235-3.49783 5.7982-3.23942 5.87012-3.01298 5.87012-2.81585 5.87012-2.59474 5.80752-2.42557 5.67032-2.30303 5.53046-2.18048 5.35331-2.11788 5.12953-2.11788 4.92707-2.11788 4.76856-2.1685 4.65534-2.26307 4.38628-2.51482 4.1665-2.71595 4-2.86114 3.8295-3.01298 3.64835-3.15018 3.44722-3.27672 3.24475-3.40726 3.03829-3.50316 2.82251-3.56177 2.61338-3.6257 2.37629-3.65234 2.12054-3.65234 1.73293-3.65234 1.37995-3.56044 1.0616-3.36996 0.744588-3.17815 0.487512-2.8971 0.295704-2.52547 0.103896-2.14985 0.005328-1.71695 0-1.2281L4.22244-1.2281C4.78588-1.2281 5.22144-1.14685 5.53313-0.98568" fill="#000000" fill-rule="nonzero" fill-opacity="1" transform="matrix(1 0 0 -1.00257 675.647 660.466)"/><g><path d="M0 0C-0.182484-0.415584-0.42624-0.728604-0.735264-0.937728-1.04029-1.14286-1.37462-1.24808-1.7316-1.24808-2.33633-1.24808-2.8345-1.00966-3.24076-0.5328-3.64835-0.055944-3.85214 0.615384-3.85214 1.47053-3.85214 2.38295-3.64568 3.07426-3.23809 3.54445-2.82917 4.01065-2.32567 4.24642-1.7316 4.24642-1.35731 4.24642-1.01232 4.13453-0.70596 3.91608-0.400932 3.69896-0.158508 3.38728 0.015984 2.97702 0.189144 2.57076 0.277056 2.08058 0.277056 1.51182 0.277056 0.920412 0.183816 0.416916 0 0M0.635364 5.332C0.075924 5.67432-0.540792 5.84615-1.2028 5.84615-1.75424 5.84615-2.25374 5.7276-2.68664 5.4905-3.12754 5.25474-3.54978 4.88844-3.95471 4.38894L-3.95471 4.64735C-3.95471 5.04162-4.04928 5.33866-4.24375 5.55044-4.43556 5.7569-4.68331 5.8608-4.991 5.8608-5.30003 5.8608-5.54778 5.7569-5.7276 5.55844-5.90476 5.35198-5.994 5.04961-5.994 4.63536L-5.994-4.68065C-5.994-5.15218-5.92474-5.50649-5.79953-5.75424-5.66366-5.99933-5.3986-6.12054-4.991-6.12054-4.30103-6.12054-3.95471-5.64235-3.95471-4.69663L-3.95471-1.45721C-3.57376-1.93406-3.17416-2.3017-2.75458-2.54412-2.33766-2.7932-1.81685-2.91575-1.2028-2.91575-0.689976-2.91575-0.214452-2.81452 0.235764-2.61472 0.680652-2.41225 1.06427-2.11921 1.39194-1.74492 1.71828-1.36663 1.97802-0.901764 2.1645-0.34632 2.35098 0.211788 2.44422 0.823176 2.44422 1.48651 2.44422 2.38828 2.28172 3.16616 1.95671 3.82817 1.6317 4.48618 1.19347 4.98701 0.635364 5.332" fill="#000000" fill-rule="nonzero" fill-opacity="1" transform="matrix(1 0 0 -1.00257 688.552 662.639)"/></g><path d="M0 0C-0.317016 0-0.570096-0.105228-0.77256-0.32634-0.967032-0.542124-1.06826-0.861804-1.06826-1.28671L-1.06826-7.46852C-1.06826-7.88677-0.967032-8.20912-0.77256-8.43955-0.570096-8.66732-0.317016-8.77788 0-8.77788 0.315684-8.77788 0.575424-8.66999 0.783216-8.44488 0.988344-8.2251 1.09091-7.89876 1.09091-7.46852L1.09091-1.22544C1.09091-0.843156 0.988344-0.542124 0.783216-0.32634 0.575424-0.105228 0.315684 0 0 0" fill="#000000" fill-rule="nonzero" fill-opacity="1" transform="matrix(1 0 0 -1.00257 693.147 656.763)"/><path d="M0 0C-0.289044 0-0.542124-0.101232-0.760572-0.297036-0.981684-0.495504-1.08958-0.748584-1.08958-1.05228-1.08958-1.39061-0.983016-1.64768-0.767232-1.83283-0.556776-2.01798-0.302364-2.11122 0-2.11122 0.29304-2.11122 0.543456-2.01798 0.753912-1.83283 0.964368-1.64502 1.0696-1.38661 1.0696-1.05228 1.0696-0.711288 0.960372-0.448884 0.744588-0.2664 0.528804-0.087912 0.283716 0 0 0" fill="#000000" fill-rule="nonzero" fill-opacity="1" transform="matrix(1 0 0 -1.00257 693.169 653.638)"/><path d="M0 0-2.21378 3.48052-1.06826 4.53146C-0.483516 5.05894-0.190476 5.48251-0.190476 5.7982-0.190476 6.05394-0.281052 6.26972-0.456876 6.44155-0.63936 6.61338-0.863136 6.69863-1.13486 6.69863-1.35864 6.69863-1.55045 6.64002-1.70896 6.52547-1.87013 6.41225-2.09524 6.19114-2.3976 5.87812L-4.8245 3.32867-4.8245 8.56742C-4.8245 9.00698-4.92307 9.34265-5.11888 9.56776-5.31468 9.79686-5.57575 9.91008-5.90742 9.91008-6.24841 9.91008-6.51748 9.78754-6.70129 9.53312-6.88244 9.28137-6.97702 8.91641-6.97702 8.43955L-6.97702-0.768564C-6.97702-1.1988-6.87978-1.52514-6.69064-1.74625-6.50416-1.97003-6.24042-2.07925-5.90742-2.07925-5.62504-2.07925-5.36796-1.96736-5.15351-1.74092-4.93506-1.51848-4.8245-1.1988-4.8245-0.784548L-4.8245 0.935064-3.65234 2.04062-1.75025-1.09357C-1.50916-1.46387-1.31202-1.72094-1.17083-1.86613-1.0283-2.01132-0.823176-2.07925-0.560772-2.07925-0.258408-2.07925-0.010656-1.98068 0.177156-1.78488 0.364968-1.58242 0.462204-1.31602 0.462204-0.97236 0.462204-0.855144 0.422244-0.71928 0.35298-0.587412 0.282384-0.45288 0.161172-0.261072 0 0" fill="#000000" fill-rule="nonzero" fill-opacity="1" transform="matrix(1 0 0 -1.00257 702.947 663.479)"/><path d="M0 0C-0.333 0-0.610056-0.114552-0.837828-0.347652-1.0656-0.578088-1.18015-0.856476-1.18015-1.17616-1.18015-1.55844-1.05894-1.85548-0.823176-2.06327-0.584748-2.27506-0.303696-2.37895 0.021312-2.37895 0.336996-2.37895 0.61272-2.27506 0.85248-2.05794 1.08425-1.84882 1.2028-1.55311 1.2028-1.17616 1.2028-0.85248 1.08425-0.571428 0.85248-0.342324 0.61272-0.114552 0.331668 0 0 0" fill="#000000" fill-rule="nonzero" fill-opacity="1" transform="matrix(1 0 0 -1.00257 705.866 663.178)"/><path d="M0 0C-0.221112 0-0.410256-0.071928-0.562104-0.20646-0.71262-0.34632-0.853812-0.534132-0.98568-0.776556-1.22144-1.18948-1.49317-1.49317-1.80752-1.69297-2.11388-1.8941-2.48418-1.994-2.91708-1.994-3.23809-1.994-3.5338-1.93406-3.80552-1.80486-4.07326-1.68232-4.30103-1.50116-4.4915-1.2614-4.68331-1.02298-4.82717-0.731268-4.9244-0.39294-5.0243-0.051948-5.07758 0.322344-5.07758 0.729936-5.07758 1.58908-4.88178 2.27639-4.4915 2.77189-4.10123 3.27139-3.58308 3.52048-2.94905 3.52048-2.50549 3.52048-2.14186 3.41924-1.85681 3.21678-1.5651 3.02098-1.29204 2.71728-1.02697 2.31901-0.881784 2.10989-0.748584 1.96204-0.628704 1.86746-0.508824 1.77689-0.360972 1.73027-0.178488 1.73027 0.090576 1.73027 0.323676 1.82084 0.520812 1.99933 0.711288 2.17915 0.804528 2.40026 0.804528 2.65468 0.804528 2.90909 0.721944 3.18481 0.548784 3.47652 0.37962 3.7669 0.131868 4.03996-0.191808 4.30103-0.518148 4.5581-0.911088 4.77122-1.37729 4.93373-1.84748 5.09756-2.35897 5.18015-2.91708 5.18015-3.81485 5.18015-4.5954 4.995-5.24542 4.62204-5.89144 4.24908-6.38827 3.72427-6.72793 3.04495-7.07292 2.3643-7.24208 1.58242-7.24208 0.693972-7.24208-0.61272-6.86779-1.65434-6.1232-2.43356-5.37329-3.21012-4.33166-3.6004-2.99434-3.6004-2.36963-3.6004-1.80353-3.51382-1.30403-3.34598-0.803196-3.17815-0.388944-2.95304-0.05994-2.67732 0.270396-2.40026 0.518148-2.11122 0.676656-1.80353 0.83916-1.4985 0.91908-1.20812 0.91908-0.941724 0.91908-0.716616 0.829836-0.502164 0.654012-0.302364 0.483516-0.102564 0.263736 0 0 0" fill="#000000" fill-rule="nonzero" fill-opacity="1" transform="matrix(1 0 0 -1.00257 715.704 661.94)"/><path d="M0 0C-0.38628-0.495504-0.908424-0.741924-1.55977-0.741924-1.99134-0.741924-2.3643-0.627372-2.68664-0.40626-3.00632-0.182484-3.25008 0.141192-3.42324 0.564768-3.5964 0.987012-3.68165 1.47586-3.68165 2.04062-3.68165 2.61205-3.5924 3.11155-3.41791 3.53912-3.24475 3.96803-2.99966 4.29037-2.67865 4.50749-2.35631 4.72594-1.98335 4.83516-1.55977 4.83516-0.908424 4.83516-0.38628 4.5914 0 4.0959 0.384948 3.60706 0.580752 2.92241 0.580752 2.04062 0.580752 1.17482 0.384948 0.491508 0 0M1.58641 5.21611C1.2028 5.60239 0.751248 5.90609 0.21978 6.11388-0.31302 6.32833-0.908424 6.43223-1.55977 6.43223-2.2018 6.43223-2.79054 6.32833-3.326 6.12187-3.85614 5.91008-4.30769 5.61438-4.68464 5.23076-5.05894 4.84715-5.34798 4.38228-5.54911 3.83882-5.74225 3.29537-5.84748 2.69464-5.84748 2.04062-5.84748 1.3946-5.74492 0.804528-5.55444 0.267732-5.35331-0.2664-5.06426-0.731268-4.68065-1.1282-4.2997-1.51715-3.84548-1.82084-3.326-2.02864-2.80253-2.24176-2.21378-2.34832-1.55977-2.34832-0.904428-2.34832-0.311688-2.24176 0.21978-2.0353 0.744588-1.82484 1.1988-1.52514 1.57842-1.13486 1.95937-0.747252 2.24575-0.282384 2.45221 0.261072 2.64535 0.80586 2.74792 1.40126 2.74792 2.04062 2.74792 2.6933 2.64668 3.28205 2.45354 3.82417 2.25508 4.35964 1.97003 4.82051 1.58641 5.21611" fill="#000000" fill-rule="nonzero" fill-opacity="1" transform="matrix(1 0 0 -1.00257 723.19 663.212)"/><g><path d="M0 0C-0.42624 0.230436-0.93906 0.348984-1.52647 0.348984-2.03396 0.348984-2.4935 0.241092-2.91042 0.02664-3.32734-0.187812-3.71761-0.515484-4.08391-0.955044-4.33966-0.522144-4.658-0.19314-5.04961 0.023976-5.43856 0.23976-5.90476 0.348984-6.44555 0.348984-6.97036 0.348984-7.44188 0.243756-7.87079 0.02664-8.29703-0.17982-8.69663-0.510156-9.07358-0.955044L-9.07358-0.751248C-9.07358-0.403596-9.17215-0.130536-9.36929 0.069264-9.56909 0.261072-9.81418 0.363636-10.1112 0.363636-10.4122 0.363636-10.66 0.25974-10.8505 0.045288-11.037-0.162504-11.1302-0.47286-11.1302-0.87912L-11.1302-7.05427C-11.1302-7.50182-11.0263-7.84148-10.8172-8.07325-10.6094-8.30102-10.3416-8.41558-10.0126-8.41558-9.68231-8.41558-9.41591-8.30102-9.20945-8.07325-9.01098-7.84148-8.90708-7.50182-8.90708-7.05427L-8.90708-4.13852C-8.90708-3.22877-8.79386-2.53213-8.57142-2.05261-8.34631-1.5611-7.88278-1.31868-7.17548-1.31868-6.82384-1.31868-6.5641-1.41458-6.40026-1.61172-6.23909-1.80086-6.13652-2.05261-6.09923-2.34698-6.06326-2.64802-6.04595-3.07159-6.04595-3.61638L-6.04595-7.05427C-6.04595-7.50848-5.94205-7.84548-5.73692-8.07458-5.53846-8.30235-5.27072-8.41558-4.94438-8.41558-4.60606-8.41558-4.33966-8.30235-4.13186-8.07458-3.92274-7.84548-3.82417-7.50848-3.82417-7.05427L-3.82417-4.18648C-3.82417-3.26074-3.74159-2.61738-3.58708-2.24975-3.44189-1.97136-3.24342-1.74092-2.98768-1.57442-2.73193-1.40792-2.46154-1.31868-2.17649-1.31868-1.82484-1.31868-1.55977-1.41458-1.38262-1.60506-1.21212-1.7942-1.10423-2.02864-1.0656-2.30969-1.02697-2.58808-1.00699-2.95837-1.00699-3.42324L-1.00699-7.05427C-1.00699-7.50182-0.903096-7.84148-0.693972-8.07325-0.484848-8.30102-0.21978-8.41558 0.109224-8.41558 0.444888-8.41558 0.71928-8.30235 0.923076-8.07458 1.12954-7.84548 1.22944-7.50848 1.22944-7.05427L1.22944-2.83982C1.22944-2.002 1.13753-1.38794 0.955044-0.995004 0.744588-0.564768 0.424908-0.231768 0 0" fill="#000000" fill-rule="nonzero" fill-opacity="1" transform="matrix(1 0 0 -1.00257 737.994 657.128)"/></g><path d="M0 0C-0.001332 0.005328-0.001332 0.007992-0.001332 0.014652-0.001332 0.007992-0.001332 0.005328 0 0" fill="#000000" fill-rule="nonzero" fill-opacity="1" transform="matrix(1 0 0 -1.00257 633.704 660.642)"/><path d="M0 0 0.001332 0C-0.038628 0.195804-0.071928 0.391608-0.095904 0.583416-0.071928 0.388944-0.038628 0.19314 0 0" fill="#000000" fill-rule="nonzero" fill-opacity="1" transform="matrix(1 0 0 -1.00257 633.813 661.333)"/><path d="M0 0C-0.005328 0.007992-0.009324 0.017316-0.014652 0.027972-0.009324 0.017316-0.005328 0.007992 0 0" fill="#000000" fill-rule="nonzero" fill-opacity="1" transform="matrix(1 0 0 -1.00257 634.528 663.341)"/><path d="M0 0C-0.018648 0.035964-0.035964 0.075924-0.05328 0.111888-0.035964 0.07326-0.018648 0.035964 0 0" fill="#000000" fill-rule="nonzero" fill-opacity="1" transform="matrix(1 0 0 -1.00257 634.459 663.208)"/><g><path d="M0 0C0.105228-0.333 0.2331-0.655344 0.37962-0.964368 0.229104-0.648684 0.105228-0.325008 0.001332 0Z" fill="#000000" fill-rule="nonzero" fill-opacity="1" transform="matrix(1 0 0 -1.00257 634.014 662.107)"/></g><path d="M0 0-0.101232 0.34632C0.297036 0.428904 0.596736 0.783216 0.596736 1.20546 0.596736 1.69164 0.201132 2.08458-0.282384 2.08458-0.768564 2.08458-1.1615 1.69164-1.1615 1.20546-1.1615 0.783216-0.863136 0.428904-0.4662 0.34632L-0.354312-0.03996C-1.71562-0.22644-2.7972-0.756576-2.7972-0.756576L-2.60539-1.34532C-1.78355-1.07093-1.0696-0.904428-0.422244-0.833832 0.211788-0.7659 0.688644-0.737928 1.07759-0.737928 1.49584-0.737928 1.80353-0.769896 2.15651-0.828504L2.25641-0.194472C2.25641-0.194472 1.28138 0.103896 0 0" fill="#000000" fill-rule="nonzero" fill-opacity="1" transform="matrix(1 0 0 -1.00257 640.98 651.611)"/><path d="M0 0C-0.022644-0.030636-0.662004-0.61938-1.16683-1.70363-1.18814-1.67033-1.21345-1.63836-1.24142-1.60506-1.39194-1.43989-1.60373-1.35598-1.87146-1.35997L-1.88478-1.35997C-2.05128-1.35997-2.1645-1.30536-2.23909-1.23876-2.16583-1.14286-2.12054-1.02431-2.12054-0.893772-2.12054-0.587412-2.36963-0.336996-2.67865-0.336996-2.98501-0.336996-3.2341-0.587412-3.2341-0.893772-3.2341-1.20146-2.98501-1.45055-2.67865-1.45055-2.62937-1.45055-2.58408-1.44256-2.53879-1.43323-2.4016-1.58641-2.18448-1.71828-1.86746-1.71162-1.7023-1.71029-1.58242-1.75291-1.5025-1.84082-1.41059-1.94206-1.37995-2.08724-1.3693-2.19514-1.37063-2.1978-1.37063-2.20046-1.37196-2.20046-1.73426-3.19147-1.6317-4.42357-1.6317-4.42357L-0.751248-4.4582C-0.7326-4.01065-0.668664-3.22477-0.440892-2.6014-0.003996-1.3946 0.54612-0.642024 0.567432-0.610056L0.57276-0.603396C0.604728-0.562104 0.635364-0.523476 0.667332-0.484848L0.40626-0.295704Z" fill="#000000" fill-rule="nonzero" fill-opacity="1" transform="matrix(1 0 0 -1.00257 633.944 654.958)"/><path d="M0 0C-0.30636 0-0.558108-0.249084-0.558108-0.556776-0.558108-0.604728-0.550116-0.650016-0.538128-0.693972-0.689976-0.8325-0.823176-1.05095-0.817848-1.3693-0.815184-1.53313-0.85914-1.65168-0.947052-1.73293-1.01765-1.79554-1.10556-1.82884-1.19214-1.85015-1.84882-0.931068-2.65468-0.371628-2.65468-0.371628L-3.28604-1.04828C-2.80786-1.48252-2.32034-2.02597-1.84748-2.70529-1.51981-3.17416-1.18282-3.77888-0.901764-4.38228L-0.049284-3.97735C-0.049284-3.97735-0.438228-3.01698-0.98568-2.15384-0.891108-2.12054-0.796536-2.0686-0.711288-1.994-0.544788-1.84349-0.462204-1.63037-0.4662-1.36264-0.468864-1.18948-0.411588-1.07359-0.343656-0.995004-0.247752-1.06826-0.130536-1.11355 0-1.11355 0.309024-1.11355 0.556776-0.863136 0.556776-0.556776 0.556776-0.249084 0.309024 0 0 0" fill="#000000" fill-rule="nonzero" fill-opacity="1" transform="matrix(1 0 0 -1.00257 649.715 653.087)"/><g><path d="M0 0C-1.17216-0.571428-3.10356-1.32534-5.64235-1.68098-6.64135-1.81818-7.60705-1.8688-8.49683-1.8688-9.65434-1.8688-10.6773-1.78355-11.4619-1.68498-12.3583-1.57176-13.0576-1.43323-13.4878-1.33733-13.3839-1.66234-13.2601-1.98601-13.1095-2.3017-13.1069-2.30836-13.1029-2.31768-13.0976-2.32301-13.0802-2.35897-13.0629-2.39893-13.0443-2.4349-13.0256-2.47086-13.0083-2.50682-12.9897-2.54012-12.9843-2.55078-12.9803-2.5601-12.975-2.5681-12.7233-3.04229-12.4209-3.47918-12.0759-3.85747-10.8784-5.16816-9.657-5.37462-9.64501-5.37728L-9.62636-5.37995-9.60771-5.38661C-9.59706-5.3906-8.51414-5.73959-6.86912-5.73959-5.24941-5.73959-3.66034-5.41192-2.14585-4.76856-1.02564-4.19447 0.035964-3.32334 0.562104-2.54545 0.968364-1.94472 1.26274-1.3027 1.4359-0.636696 1.52914-0.282384 1.60106 0.28638 1.55844 0.881784 1.2281 0.660672 0.70596 0.344988 0 0" fill="#000000" fill-rule="nonzero" fill-opacity="1" transform="matrix(1 0 0 -1.00257 647.503 660.767)"/></g><path d="M0 0C-0.800532 0-1.44922 0.650016-1.44922 1.45188-1.44922 2.25241-0.800532 2.90243 0 2.90243 0.800532 2.90243 1.45188 2.25241 1.45188 1.45188 1.45188 0.650016 0.800532 0 0 0M-6.85847-1.7276C-8.15317-1.7276-9.20279-0.67932-9.20279 0.615384-9.20279 1.90876-8.15317 2.96104-6.85847 2.96104-5.56376 2.96104-4.51415 1.90876-4.51415 0.615384-4.51415-0.67932-5.56376-1.7276-6.85847-1.7276M-2.00599 5.27738C-2.35897 5.33466-2.64002 5.36796-3.04096 5.36796-3.41392 5.36796-3.87479 5.33866-4.4915 5.27339-5.10955 5.20812-5.79953 5.04562-6.60006 4.77655-7.7216 4.40226-8.73526 3.81218-9.53446 3.07292L-9.5611 3.04762C-9.68097 2.93972-9.92739 2.70929-10.2124 2.34832-10.2457 2.2977-10.7546 1.57709-11.1568 0.471528-11.4579-0.356976-11.4445-1.5611-11.4445-1.57576L-11.4445-1.57842C-11.4445-1.85947-11.4272-2.14186-11.3966-2.42024-11.3966-2.42557-11.3966-2.42824-11.3953-2.43356-11.3926-2.46953-11.3859-2.50416-11.3819-2.53879-11.358-2.73193-11.3247-2.9264-11.2834-3.12354-10.7013-3.27139-7.22344-4.08391-3.33666-3.54179-0.901764-3.20213 0.949716-2.48152 2.07259-1.93806 3.00632-1.48518 3.60572-1.07626 3.83749-0.907092 3.60572-0.050616 2.96903 1.29071 2.38694 2.12854 0.717948 4.51282-1.08158 5.12554-2.00599 5.27738" fill="#000000" fill-rule="nonzero" fill-opacity="1" transform="matrix(1 0 0 -1.00257 645.099 658.201)"/></g></g></g></g></g></svg>